<svg width="120" height="40" viewBox="0 0 122 43" fill="none" xmlns="http://www.w3.org/2000/svg"><rect width="122" height="43" rx="6" fill="black"></rect><path d="M63.0861 12.5782C62.9506 12.5782 62.8139 12.5692 62.6758 12.5513C62.5403 12.5334 62.4099 12.504 62.2847 12.4631C62.1594 12.4222 62.0418 12.3711 61.9319 12.3097C61.8245 12.2458 61.7299 12.1691 61.6481 12.0797C61.5688 11.9902 61.5062 11.8866 61.4602 11.769C61.4142 11.6514 61.3911 11.5185 61.3911 11.3702C61.3911 11.2117 61.4193 11.0609 61.4755 10.9177C61.5318 10.7745 61.6072 10.6403 61.7018 10.5151C61.7964 10.3898 61.9063 10.2735 62.0316 10.1661C62.1568 10.0587 62.2885 9.96157 62.4265 9.87465C62.5646 9.78517 62.7039 9.70592 62.8445 9.6369C62.9877 9.56531 63.1232 9.50396 63.251 9.45283L63.2012 8.86994L64.1714 8.66286C64.1739 8.68587 64.179 8.737 64.1867 8.81625C64.1944 8.89295 64.2033 8.98498 64.2135 9.09236C64.2263 9.19973 64.2391 9.31477 64.2519 9.43749C64.2647 9.55764 64.2762 9.67141 64.2864 9.77878C64.2992 9.8836 64.3094 9.97563 64.3171 10.0549C64.3248 10.1316 64.3299 10.1789 64.3324 10.1968C64.3708 10.524 64.4053 10.7912 64.436 10.9982C64.4692 11.2053 64.4973 11.3702 64.5203 11.4929C64.5433 11.6131 64.5625 11.6987 64.5779 11.7499C64.5957 11.7984 64.6085 11.8304 64.6162 11.8457C64.6418 11.902 64.6712 11.9493 64.7044 11.9876C64.7376 12.0234 64.776 12.0528 64.8194 12.0758C64.8629 12.0963 64.914 12.1116 64.9728 12.1218C65.0316 12.1295 65.1007 12.1333 65.1799 12.1333H65.2566V13.115H65.1799C65.0444 13.1125 64.9166 13.1074 64.7964 13.0997C64.6788 13.0946 64.5651 13.0729 64.4551 13.0345C64.3478 12.9987 64.2455 12.9412 64.1484 12.8619C64.0512 12.7827 63.9592 12.6677 63.8723 12.5168C63.7265 12.5373 63.5898 12.5526 63.4619 12.5628C63.3341 12.5731 63.2088 12.5782 63.0861 12.5782ZM63.531 11.5696C63.5182 11.5006 63.5054 11.4188 63.4926 11.3242C63.4798 11.2296 63.467 11.1273 63.4543 11.0174C63.4415 10.9049 63.4274 10.7886 63.4121 10.6685C63.3993 10.5483 63.3852 10.4281 63.3699 10.308C63.3034 10.3361 63.2293 10.3719 63.1475 10.4154C63.0657 10.4588 62.9813 10.5074 62.8944 10.5611C62.8075 10.6148 62.7218 10.6736 62.6375 10.7375C62.5556 10.7988 62.4828 10.8627 62.4189 10.9292C62.355 10.9931 62.3025 11.0583 62.2616 11.1248C62.2233 11.1913 62.2041 11.2552 62.2041 11.3165C62.2041 11.3728 62.2322 11.4201 62.2885 11.4584C62.3447 11.4942 62.415 11.5236 62.4994 11.5466C62.5863 11.5671 62.6796 11.5824 62.7793 11.5926C62.879 11.6003 62.9736 11.6041 63.0631 11.6041C63.1449 11.6041 63.2267 11.6016 63.3085 11.5965C63.3903 11.5888 63.4645 11.5799 63.531 11.5696ZM65.3257 12.1333H66.1041C66.4186 12.1333 66.7356 12.1027 67.0552 12.0413C67.3747 11.9774 67.6892 11.8956 67.9985 11.7959C68.3079 11.6936 68.6082 11.5799 68.8997 11.4546C69.1911 11.3268 69.466 11.1989 69.7242 11.0711C69.6194 11.0583 69.5094 11.0328 69.3944 10.9944C69.2819 10.9535 69.1656 10.9075 69.0454 10.8564C68.9253 10.8027 68.8025 10.7464 68.6773 10.6876C68.552 10.6288 68.4267 10.5764 68.3015 10.5304C68.1762 10.4818 68.0496 10.4422 67.9218 10.4115C67.7966 10.3783 67.6738 10.3617 67.5537 10.3617C67.4591 10.3617 67.3683 10.3796 67.2814 10.4154C67.197 10.4486 67.1165 10.4921 67.0398 10.5457C66.9657 10.5969 66.8979 10.6531 66.8366 10.7145C66.7778 10.7758 66.7266 10.8333 66.6832 10.887C66.6423 10.9382 66.6103 10.9816 66.5873 11.0174L66.549 11.0711L65.782 10.6531C65.8715 10.4844 65.984 10.3233 66.1195 10.1699C66.2575 10.014 66.4071 9.87721 66.5681 9.75961C66.7292 9.63945 66.8941 9.54486 67.0628 9.47583C67.2341 9.40425 67.3977 9.36846 67.5537 9.36846C67.6841 9.36846 67.8144 9.3838 67.9448 9.41448C68.0778 9.4426 68.2107 9.48095 68.3436 9.52952C68.4791 9.5781 68.6146 9.63306 68.7501 9.69442C68.8882 9.75577 69.0288 9.81841 69.172 9.88232C69.3202 9.9539 69.4826 10.0255 69.659 10.0971C69.8354 10.1661 70.0169 10.2287 70.2035 10.285C70.3901 10.3387 70.5768 10.3834 70.7634 10.4192C70.9526 10.4524 71.1328 10.469 71.3041 10.469L71.1392 11.4047C71.0421 11.4456 70.9487 11.4904 70.8593 11.5389C70.7698 11.585 70.6778 11.6297 70.5832 11.6732C70.6343 11.7805 70.711 11.8649 70.8132 11.9263C70.9155 11.9876 71.0229 12.0336 71.1354 12.0643C71.2504 12.095 71.3603 12.1142 71.4652 12.1218C71.5725 12.1295 71.6569 12.1333 71.7183 12.1333H71.8716V13.115H71.7183C71.2172 13.115 70.7928 13.0281 70.4451 12.8543C70.0974 12.6804 69.8469 12.4337 69.6935 12.1142C69.4353 12.242 69.1681 12.366 68.892 12.4861C68.6159 12.6063 68.3296 12.7137 68.033 12.8083C67.7365 12.9003 67.4271 12.9744 67.105 13.0307C66.7854 13.0869 66.4518 13.115 66.1041 13.115H65.3257V12.1333ZM68.2363 8.13366L67.5 8.86994L66.7676 8.13366L67.5 7.40122L68.2363 8.13366ZM72.1027 12.1333C72.2331 12.1333 72.3558 12.1078 72.4709 12.0566C72.5885 12.003 72.6997 11.9084 72.8045 11.7729C72.9119 11.6348 73.0116 11.4469 73.1036 11.2092C73.1982 10.9714 73.2877 10.6672 73.372 10.2965L74.3116 10.5611C74.2502 10.7733 74.1952 10.9778 74.1467 11.1746C74.0981 11.3689 74.0712 11.5364 74.0661 11.677C74.0661 11.6898 74.0661 11.7013 74.0661 11.7115C74.0661 11.7575 74.07 11.8061 74.0776 11.8572C74.0879 11.9084 74.1045 11.9557 74.1275 11.9991C74.1505 12.0426 74.1812 12.0771 74.2195 12.1027C74.2553 12.1257 74.2949 12.1372 74.3384 12.1372C74.3435 12.1372 74.3486 12.1372 74.3537 12.1372C74.4483 12.1346 74.5378 12.1001 74.6222 12.0336C74.7065 11.9672 74.7845 11.8815 74.8561 11.7767C74.9302 11.6719 74.9967 11.553 75.0555 11.4201C75.1169 11.2871 75.1705 11.1529 75.2166 11.0174C75.2651 10.8794 75.306 10.7451 75.3393 10.6148C75.3725 10.4844 75.3981 10.3693 75.416 10.2696L76.321 10.4537C76.2877 10.6071 76.2609 10.749 76.2405 10.8794C76.22 11.0072 76.2072 11.1363 76.2021 11.2667C76.1995 11.2999 76.1983 11.3331 76.1983 11.3664C76.1983 11.4303 76.2021 11.5057 76.2098 11.5926C76.22 11.677 76.2417 11.7601 76.275 11.8419C76.3082 11.9237 76.3542 11.9915 76.413 12.0451C76.4744 12.0963 76.5536 12.1218 76.6508 12.1218C76.7607 12.1218 76.8489 12.0797 76.9154 11.9953C76.9844 11.9084 77.0368 11.7984 77.0726 11.6655C77.1084 11.5326 77.1314 11.3856 77.1416 11.2245C77.1544 11.0609 77.1608 10.9024 77.1608 10.749C77.1608 10.7004 77.1595 10.6621 77.157 10.6339C77.157 10.6033 77.157 10.5751 77.157 10.5496C77.157 10.524 77.1557 10.4959 77.1531 10.4652C77.1531 10.432 77.1531 10.3872 77.1531 10.331L78.1233 10.2543C78.131 10.3387 78.1387 10.4217 78.1463 10.5036C78.154 10.5828 78.1617 10.6659 78.1693 10.7528C78.177 10.8372 78.186 10.9279 78.1962 11.0251C78.209 11.1197 78.223 11.2232 78.2384 11.3357C78.2563 11.4686 78.2933 11.585 78.3496 11.6847C78.4084 11.7844 78.4761 11.8675 78.5528 11.9339C78.6295 12.0004 78.7113 12.0503 78.7983 12.0835C78.8877 12.1167 78.9721 12.1333 79.0513 12.1333H79.1932V13.115H79.0705C78.9453 13.115 78.8213 13.1023 78.6985 13.0767C78.5784 13.0511 78.4633 13.0115 78.3534 12.9578C78.2435 12.9041 78.1399 12.8364 78.0428 12.7546C77.9482 12.6702 77.8651 12.5705 77.7935 12.4555C77.6708 12.6549 77.5098 12.8147 77.3104 12.9348C77.1109 13.055 76.8911 13.115 76.6508 13.115C76.4105 13.115 76.1919 13.0575 75.995 12.9425C75.8007 12.8274 75.6461 12.674 75.531 12.4823C75.4569 12.5769 75.3763 12.6638 75.2894 12.7431C75.2051 12.8198 75.113 12.8875 75.0133 12.9463C74.9162 13.0026 74.8126 13.046 74.7027 13.0767C74.5928 13.1099 74.4777 13.1265 74.3576 13.1265C74.2425 13.1265 74.1313 13.1112 74.0239 13.0805C73.9166 13.0524 73.8169 13.0102 73.7248 12.954C73.6328 12.8977 73.5497 12.83 73.4756 12.7507C73.4014 12.6689 73.3401 12.5782 73.2915 12.4785C73.1637 12.7034 73.0065 12.8658 72.8198 12.9655C72.6332 13.0652 72.3954 13.115 72.1066 13.115H71.9417V12.1333H72.1027ZM79.2639 12.1333H79.8813C80.0015 12.1333 80.1242 12.1269 80.2495 12.1142C80.3773 12.0988 80.4923 12.0694 80.5946 12.026C80.6969 11.9799 80.78 11.9148 80.8439 11.8304C80.9103 11.746 80.9436 11.6335 80.9436 11.4929C80.9436 11.4265 80.9295 11.3331 80.9014 11.213C80.8733 11.0928 80.8362 10.9599 80.7902 10.8142C80.7442 10.6685 80.6892 10.5176 80.6253 10.3617C80.5639 10.2057 80.4987 10.06 80.4297 9.9245L81.3155 9.48734C81.3795 9.63306 81.4434 9.78773 81.5073 9.95135C81.5712 10.115 81.6274 10.2837 81.676 10.4575C81.7271 10.6288 81.768 10.8014 81.7987 10.9752C81.8294 11.1491 81.8447 11.3191 81.8447 11.4853C81.8447 11.7716 81.7962 12.0183 81.699 12.2254C81.6019 12.4299 81.4664 12.5986 81.2925 12.7316C81.1187 12.8619 80.9103 12.9578 80.6675 13.0192C80.4272 13.0831 80.1626 13.115 79.8737 13.115H79.2639V12.1333ZM81.2235 8.18735L80.4872 8.92363L79.7548 8.18735L80.4872 7.4549L81.2235 8.18735ZM85.8898 11.608C85.987 11.6693 86.1033 11.732 86.2388 11.7959C86.3768 11.8598 86.5187 11.9173 86.6645 11.9684C86.8127 12.0196 86.9572 12.0618 87.0978 12.095C87.241 12.1282 87.3662 12.1448 87.4736 12.1448C87.5171 12.1448 87.5707 12.1436 87.6347 12.141C87.6986 12.1385 87.7663 12.1333 87.8379 12.1257C87.9095 12.1154 87.9811 12.1014 88.0526 12.0835C88.1242 12.063 88.1881 12.0362 88.2444 12.003C88.3032 11.9672 88.3505 11.9237 88.3863 11.8726C88.4221 11.8189 88.4412 11.7537 88.4438 11.677C88.4438 11.6719 88.4438 11.6681 88.4438 11.6655C88.4438 11.5632 88.4144 11.4482 88.3556 11.3204C88.2994 11.19 88.2214 11.0545 88.1217 10.9139C88.022 10.7707 87.9069 10.6275 87.7765 10.4844C87.6462 10.3412 87.5107 10.2044 87.3701 10.0741C87.2294 9.94112 87.0876 9.81969 86.9444 9.70976C86.8038 9.59727 86.6721 9.50268 86.5494 9.42598L87.1208 8.5785C87.356 8.73956 87.5874 8.92107 87.8149 9.12303C88.045 9.325 88.2559 9.54103 88.4476 9.77111C88.6419 9.99864 88.8094 10.2364 88.95 10.4844C89.0932 10.7324 89.1954 10.9829 89.2568 11.236C89.29 11.3817 89.3066 11.5211 89.3066 11.654C89.3066 11.7818 89.2823 11.9352 89.2338 12.1142C89.1877 12.2931 89.0816 12.4695 88.9155 12.6434C88.7493 12.8147 88.5384 12.9463 88.2827 13.0383C88.0629 13.1176 87.8213 13.1572 87.558 13.1572C87.5145 13.1572 87.4698 13.1559 87.4237 13.1534C87.255 13.1534 87.0837 13.1368 86.9099 13.1035C86.736 13.0729 86.5648 13.0294 86.396 12.9732C86.2298 12.9169 86.0688 12.853 85.9128 12.7814C85.7594 12.7073 85.6163 12.6293 85.4833 12.5475L85.8898 11.608ZM90.0283 14.8407C90.4041 14.7666 90.7429 14.6669 91.0445 14.5416C91.3487 14.4189 91.6121 14.2808 91.8345 14.1274C92.0569 13.974 92.2371 13.8104 92.3752 13.6366C92.5158 13.4627 92.6091 13.2889 92.6551 13.115C92.4481 13.115 92.2461 13.1087 92.0492 13.0959C91.8524 13.0831 91.6658 13.0575 91.4894 13.0192C91.3155 12.9834 91.1545 12.9323 91.0062 12.8658C90.8605 12.7968 90.7339 12.7073 90.6265 12.5973C90.5217 12.4849 90.4399 12.3494 90.3811 12.1909C90.3223 12.0324 90.2929 11.8432 90.2929 11.6233C90.2929 11.4827 90.3082 11.3357 90.3389 11.1823C90.3696 11.0289 90.4131 10.8794 90.4693 10.7336C90.5281 10.5854 90.5997 10.446 90.6841 10.3157C90.7684 10.1827 90.8656 10.0664 90.9755 9.96669C91.0854 9.86443 91.2069 9.7839 91.3398 9.7251C91.4727 9.6663 91.6159 9.6369 91.7693 9.6369C92.1656 9.6369 92.5273 9.8133 92.8545 10.1661C92.9619 10.2863 93.0591 10.4205 93.146 10.5687C93.2329 10.717 93.3083 10.8755 93.3722 11.0443C93.4361 11.213 93.4873 11.3894 93.5256 11.5735C93.5665 11.755 93.5921 11.9416 93.6023 12.1333H93.8593V13.115H93.5218C93.4349 13.4934 93.2879 13.8334 93.0808 14.1351C92.8737 14.4393 92.6245 14.7039 92.333 14.9289C92.0441 15.1539 91.722 15.3392 91.3666 15.4849C91.0113 15.6307 90.6419 15.7355 90.2584 15.7994L90.0283 14.8407ZM91.7693 10.6224C91.7028 10.6224 91.6312 10.6506 91.5545 10.7068C91.4779 10.763 91.4075 10.8359 91.3436 10.9254C91.2797 11.0123 91.226 11.1095 91.1826 11.2168C91.1417 11.3242 91.1212 11.429 91.1212 11.5313C91.1212 11.6387 91.1455 11.7281 91.1941 11.7997C91.2452 11.8713 91.3091 11.9288 91.3858 11.9723C91.4651 12.0157 91.5533 12.049 91.6504 12.072C91.7501 12.0924 91.8485 12.1065 91.9457 12.1142C91.9994 12.1193 92.0582 12.1231 92.1221 12.1257C92.186 12.1257 92.2512 12.1269 92.3177 12.1295C92.3867 12.1321 92.4544 12.1333 92.5209 12.1333C92.5874 12.1333 92.65 12.1333 92.7088 12.1333C92.7011 12.0387 92.682 11.9365 92.6513 11.8266C92.6232 11.7141 92.5861 11.6016 92.5401 11.4891C92.4941 11.3766 92.4417 11.2692 92.3829 11.167C92.3241 11.0622 92.2601 10.9701 92.1911 10.8909C92.1247 10.8091 92.0556 10.7439 91.984 10.6953C91.9125 10.6467 91.8409 10.6224 91.7693 10.6224ZM93.9277 12.1333H94.2076C94.2996 12.1333 94.3853 12.1257 94.4645 12.1103C94.5438 12.095 94.6141 12.063 94.6755 12.0145C94.7368 11.9633 94.7867 11.893 94.825 11.8035C94.8634 11.7141 94.8876 11.5939 94.8979 11.4431C94.8979 11.3843 94.8992 11.282 94.9017 11.1363C94.9068 10.988 94.9107 10.8129 94.9132 10.6109C94.9158 10.4064 94.9183 10.1827 94.9209 9.93984C94.9234 9.69697 94.9247 9.44899 94.9247 9.1959C94.9247 8.99904 94.9234 8.80603 94.9209 8.61684C94.9209 8.4251 94.9183 8.24103 94.9132 8.06463C94.9107 7.88823 94.9043 7.72206 94.894 7.56611C94.8864 7.41017 94.8749 7.26828 94.8595 7.14045L95.8374 7.0139C95.8553 7.15196 95.8694 7.3079 95.8796 7.48175C95.8898 7.65559 95.8975 7.84094 95.9026 8.03779C95.9103 8.23209 95.9141 8.43661 95.9141 8.65136C95.9166 8.86355 95.9179 9.0783 95.9179 9.2956C95.9179 9.77878 95.9128 10.1993 95.9026 10.5572C95.8949 10.9152 95.8911 11.2322 95.8911 11.5083C95.8911 11.7026 95.9409 11.856 96.0406 11.9684C96.1403 12.0784 96.2886 12.1333 96.4855 12.1333H96.5698V13.115H96.4855C96.4701 13.115 96.4561 13.115 96.4433 13.115C96.3436 13.115 96.2452 13.1061 96.148 13.0882C96.0534 13.0729 95.9614 13.0486 95.8719 13.0153C95.785 12.9847 95.7045 12.9476 95.6303 12.9041C95.5562 12.8607 95.491 12.8159 95.4347 12.7699C95.3606 12.8415 95.2788 12.9003 95.1893 12.9463C95.1024 12.9898 95.0129 13.0243 94.9209 13.0499C94.8288 13.0754 94.7381 13.092 94.6486 13.0997C94.5591 13.1099 94.4786 13.115 94.407 13.115H93.9277V12.1333ZM96.6418 12.1333H97.2592C97.3794 12.1333 97.5021 12.1269 97.6274 12.1142C97.7552 12.0988 97.8703 12.0694 97.9725 12.026C98.0748 11.9799 98.1579 11.9148 98.2218 11.8304C98.2882 11.746 98.3215 11.6335 98.3215 11.4929C98.3215 11.4265 98.3074 11.3331 98.2793 11.213C98.2512 11.0928 98.2141 10.9599 98.1681 10.8142C98.1221 10.6685 98.0671 10.5176 98.0032 10.3617C97.9418 10.2057 97.8766 10.06 97.8076 9.9245L98.6935 9.48734C98.7574 9.63306 98.8213 9.78773 98.8852 9.95135C98.9491 10.115 99.0053 10.2837 99.0539 10.4575C99.1051 10.6288 99.146 10.8014 99.1766 10.9752C99.2073 11.1491 99.2227 11.3191 99.2227 11.4853C99.2227 11.7716 99.1741 12.0183 99.0769 12.2254C98.9798 12.4299 98.8443 12.5986 98.6704 12.7316C98.4966 12.8619 98.2882 12.9578 98.0454 13.0192C97.8051 13.0831 97.5405 13.115 97.2516 13.115H96.6418V12.1333ZM98.6014 8.18735L97.8651 8.92363L97.1327 8.18735L97.8651 7.4549L98.6014 8.18735ZM101.22 7.0139C101.284 7.5022 101.329 7.96877 101.354 8.4136C101.38 8.85588 101.395 9.28921 101.4 9.71359C101.406 10.0741 101.407 10.4077 101.404 10.7145C101.404 11.0213 101.402 11.3076 101.397 11.5735C101.391 11.8368 101.384 12.0835 101.374 12.3136C101.363 12.5411 101.353 12.7546 101.343 12.954L100.338 13.1074C100.392 12.2637 100.419 11.5185 100.419 10.8717C100.419 10.6109 100.415 10.3668 100.407 10.1393C100.387 9.61517 100.364 9.12303 100.338 8.66286C100.313 8.20013 100.278 7.75785 100.235 7.33603L101.22 7.0139ZM102.656 11.608C102.753 11.6693 102.87 11.732 103.005 11.7959C103.143 11.8598 103.285 11.9173 103.431 11.9684C103.579 12.0196 103.724 12.0618 103.864 12.095C104.007 12.1282 104.133 12.1448 104.24 12.1448C104.283 12.1448 104.337 12.1436 104.401 12.141C104.465 12.1385 104.533 12.1333 104.604 12.1257C104.676 12.1154 104.747 12.1014 104.819 12.0835C104.891 12.063 104.955 12.0362 105.011 12.003C105.07 11.9672 105.117 11.9237 105.153 11.8726C105.188 11.8189 105.208 11.7537 105.21 11.677C105.21 11.6719 105.21 11.6681 105.21 11.6655C105.21 11.5632 105.181 11.4482 105.122 11.3204C105.066 11.19 104.988 11.0545 104.888 10.9139C104.788 10.7707 104.673 10.6275 104.543 10.4844C104.413 10.3412 104.277 10.2044 104.136 10.0741C103.996 9.94112 103.854 9.81969 103.711 9.70976C103.57 9.59727 103.438 9.50268 103.316 9.42598L103.887 8.5785C104.122 8.73956 104.354 8.92107 104.581 9.12303C104.811 9.325 105.022 9.54103 105.214 9.77111C105.408 9.99864 105.576 10.2364 105.716 10.4844C105.86 10.7324 105.962 10.9829 106.023 11.236C106.056 11.3817 106.073 11.5211 106.073 11.654C106.073 11.7818 106.049 11.9352 106 12.1142C105.954 12.2931 105.848 12.4695 105.682 12.6434C105.516 12.8147 105.305 12.9463 105.049 13.0383C104.829 13.1176 104.588 13.1572 104.324 13.1572C104.281 13.1572 104.236 13.1559 104.19 13.1534C104.021 13.1534 103.85 13.1368 103.676 13.1035C103.502 13.0729 103.331 13.0294 103.162 12.9732C102.996 12.9169 102.835 12.853 102.679 12.7814C102.526 12.7073 102.383 12.6293 102.25 12.5475L102.656 11.608Z" fill="white"></path><path d="M47.0849 33.59C46.5715 33.59 46.1049 33.5133 45.6849 33.36C45.2649 33.2067 44.9049 32.9867 44.6049 32.7C44.3082 32.4133 44.0782 32.0633 43.9149 31.65C43.7515 31.24 43.6699 30.7767 43.6699 30.26C43.6699 29.73 43.7465 29.205 43.8999 28.685C44.0565 28.165 44.2899 27.6717 44.5999 27.205L45.5849 27.92C45.5249 28.0033 45.4499 28.1267 45.3599 28.29C45.2732 28.4533 45.1899 28.6417 45.1099 28.855C45.0299 29.0683 44.9599 29.2983 44.8999 29.545C44.8432 29.7917 44.8149 30.04 44.8149 30.29C44.8149 30.5867 44.8765 30.8567 44.9999 31.1C45.1265 31.3433 45.2965 31.5517 45.5099 31.725C45.7232 31.9017 45.9699 32.0383 46.2499 32.135C46.5332 32.235 46.8315 32.2883 47.1449 32.295C47.1615 32.295 47.1782 32.295 47.1949 32.295C47.4282 32.295 47.6565 32.2717 47.8799 32.225C48.1065 32.1817 48.3215 32.1133 48.5249 32.02C48.7282 31.93 48.9132 31.82 49.0799 31.69C49.2465 31.56 49.3882 31.415 49.5049 31.255C49.6215 31.095 49.7115 30.9217 49.7749 30.735C49.8249 30.575 49.8499 30.4083 49.8499 30.235C49.8499 30.2083 49.8499 30.18 49.8499 30.15C49.8432 29.9967 49.8165 29.8267 49.7699 29.64C49.7265 29.45 49.6732 29.2583 49.6099 29.065C49.5465 28.8717 49.4782 28.6833 49.4049 28.5C49.3349 28.3133 49.2682 28.1483 49.2049 28.005C49.1415 27.8617 49.0882 27.7467 49.0449 27.66C49.0015 27.5733 48.9782 27.53 48.9749 27.53L50.1499 26.875C50.1599 26.8917 50.1949 26.9767 50.2549 27.13C50.3182 27.28 50.3982 27.4683 50.4949 27.695C50.6215 27.985 50.7449 28.21 50.8649 28.37C50.9882 28.5267 51.1082 28.6433 51.2249 28.72C51.3415 28.7933 51.4549 28.8367 51.5649 28.85C51.6782 28.8633 51.7865 28.87 51.8899 28.87H52.0549V30.15H51.8899C51.7099 30.15 51.5465 30.1317 51.3999 30.095C51.2532 30.0617 51.1265 30.015 51.0199 29.955C51.0232 30.0183 51.0249 30.0817 51.0249 30.145C51.0249 30.385 51.0015 30.6367 50.9549 30.9C50.9082 31.1667 50.8199 31.435 50.6899 31.705C50.5632 31.975 50.3949 32.225 50.1849 32.455C49.9749 32.685 49.7215 32.8833 49.4249 33.05C49.1315 33.22 48.7899 33.3517 48.3999 33.445C48.0099 33.5417 47.5715 33.59 47.0849 33.59ZM48.2099 26.765L47.2499 27.725L46.2949 26.765L47.2499 25.81L48.2099 26.765ZM52.3024 28.87C52.4724 28.87 52.6324 28.8367 52.7824 28.77C52.9358 28.7 53.0808 28.5767 53.2174 28.4C53.3574 28.22 53.4874 27.975 53.6074 27.665C53.7308 27.355 53.8474 26.9583 53.9574 26.475L55.1824 26.82C55.1024 27.0967 55.0308 27.3633 54.9674 27.62C54.9041 27.8733 54.8691 28.0917 54.8624 28.275C54.8624 28.2917 54.8624 28.3067 54.8624 28.32C54.8624 28.38 54.8674 28.4433 54.8774 28.51C54.8908 28.5767 54.9124 28.6383 54.9424 28.695C54.9724 28.7517 55.0124 28.7967 55.0624 28.83C55.1091 28.86 55.1608 28.875 55.2174 28.875C55.2241 28.875 55.2308 28.875 55.2374 28.875C55.3608 28.8717 55.4774 28.8267 55.5874 28.74C55.6974 28.6533 55.7991 28.5417 55.8924 28.405C55.9891 28.2683 56.0758 28.1133 56.1524 27.94C56.2324 27.7667 56.3024 27.5917 56.3624 27.415C56.4258 27.235 56.4791 27.06 56.5224 26.89C56.5658 26.72 56.5991 26.57 56.6224 26.44L57.8024 26.68C57.7591 26.88 57.7241 27.065 57.6974 27.235C57.6708 27.4017 57.6541 27.57 57.6474 27.74C57.6441 27.7833 57.6424 27.8267 57.6424 27.87C57.6424 27.9533 57.6474 28.0517 57.6574 28.165C57.6708 28.275 57.6991 28.3833 57.7424 28.49C57.7858 28.5967 57.8458 28.685 57.9224 28.755C58.0024 28.8217 58.1058 28.855 58.2324 28.855C58.3758 28.855 58.4908 28.8 58.5774 28.69C58.6674 28.5767 58.7358 28.4333 58.7824 28.26C58.8291 28.0867 58.8591 27.895 58.8724 27.685C58.8891 27.4717 58.8974 27.265 58.8974 27.065C58.8974 27.0017 58.8958 26.9517 58.8924 26.915C58.8924 26.875 58.8924 26.8383 58.8924 26.805C58.8924 26.7717 58.8908 26.735 58.8874 26.695C58.8874 26.6517 58.8874 26.5933 58.8874 26.52L60.1524 26.42C60.1624 26.53 60.1724 26.6383 60.1824 26.745C60.1924 26.8483 60.2024 26.9567 60.2124 27.07C60.2224 27.18 60.2341 27.2983 60.2474 27.425C60.2641 27.5483 60.2824 27.6833 60.3024 27.83C60.3258 28.0033 60.3741 28.155 60.4474 28.285C60.5241 28.415 60.6124 28.5233 60.7124 28.61C60.8124 28.6967 60.9191 28.7617 61.0324 28.805C61.1491 28.8483 61.2591 28.87 61.3624 28.87H61.5474V30.15H61.3874C61.2241 30.15 61.0624 30.1333 60.9024 30.1C60.7458 30.0667 60.5958 30.015 60.4524 29.945C60.3091 29.875 60.1741 29.7867 60.0474 29.68C59.9241 29.57 59.8158 29.44 59.7224 29.29C59.5624 29.55 59.3524 29.7583 59.0924 29.915C58.8324 30.0717 58.5458 30.15 58.2324 30.15C57.9191 30.15 57.6341 30.075 57.3774 29.925C57.1241 29.775 56.9224 29.575 56.7724 29.325C56.6758 29.4483 56.5708 29.5617 56.4574 29.665C56.3474 29.765 56.2274 29.8533 56.0974 29.93C55.9708 30.0033 55.8358 30.06 55.6924 30.1C55.5491 30.1433 55.3991 30.165 55.2424 30.165C55.0924 30.165 54.9474 30.145 54.8074 30.105C54.6674 30.0683 54.5374 30.0133 54.4174 29.94C54.2974 29.8667 54.1891 29.7783 54.0924 29.675C53.9958 29.5683 53.9158 29.45 53.8524 29.32C53.6858 29.6133 53.4808 29.825 53.2374 29.955C52.9941 30.085 52.6841 30.15 52.3074 30.15H52.0924V28.87H52.3024ZM57.0924 24.56L56.2424 25.41L55.3824 24.555L56.2324 23.7L57.0924 24.56ZM58.9824 24.565L58.1324 25.42L57.2724 24.56L58.1224 23.71L58.9824 24.565ZM56.4024 23.115L57.1824 22.335L57.9674 23.12L57.1874 23.9L56.4024 23.115ZM66.0313 28.87V30.15H65.9313C65.6079 30.15 65.3346 30.0983 65.1113 29.995C64.8879 29.8917 64.6979 29.7583 64.5413 29.595C64.4313 29.735 64.2679 29.8433 64.0513 29.92C63.8379 29.9933 63.5996 30.0467 63.3363 30.08C63.0729 30.1167 62.8013 30.1367 62.5213 30.14C62.2446 30.1467 61.9896 30.15 61.7563 30.15H61.5713V28.87H61.7563C62.1463 28.87 62.4746 28.8483 62.7413 28.805C63.0079 28.7583 63.2229 28.6917 63.3863 28.605C63.5529 28.5183 63.6729 28.41 63.7463 28.28C63.8196 28.1467 63.8563 27.9933 63.8563 27.82C63.8563 27.7067 63.8346 27.5567 63.7913 27.37C63.7479 27.18 63.6829 26.9367 63.5963 26.64L64.8263 26.295C64.8696 26.4417 64.9029 26.5717 64.9263 26.685C64.9529 26.795 64.9729 26.9067 64.9863 27.02C65.0029 27.13 65.0163 27.25 65.0263 27.38C65.0396 27.5067 65.0529 27.6583 65.0663 27.835C65.0763 27.9417 65.1013 28.0567 65.1413 28.18C65.1813 28.3 65.2363 28.4117 65.3063 28.515C65.3796 28.615 65.4679 28.7 65.5713 28.77C65.6746 28.8367 65.7946 28.87 65.9313 28.87H66.0313ZM63.4313 31.63L62.5813 32.48L61.7213 31.625L62.5713 30.77L63.4313 31.63ZM65.3213 31.635L64.4713 32.49L63.6113 31.63L64.4613 30.78L65.3213 31.635ZM66.0525 28.87H67.6075C67.8009 28.87 67.9742 28.8467 68.1275 28.8C68.2842 28.7533 68.4159 28.6933 68.5225 28.62C68.6292 28.5433 68.7109 28.4567 68.7675 28.36C68.8275 28.26 68.8575 28.1583 68.8575 28.055C68.8575 27.895 68.8259 27.7217 68.7625 27.535C68.6992 27.345 68.6142 27.1533 68.5075 26.96C68.4042 26.7633 68.2809 26.5667 68.1375 26.37C67.9975 26.17 67.8492 25.98 67.6925 25.8C67.5359 25.6167 67.3742 25.4467 67.2075 25.29C67.0442 25.1333 66.8875 24.995 66.7375 24.875L66.8575 23.465L71.2325 21.615L71.6975 22.76L67.9225 24.31C68.1792 24.5333 68.4025 24.755 68.5925 24.975C68.7859 25.1917 68.9575 25.41 69.1075 25.63C69.2609 25.8467 69.3992 26.065 69.5225 26.285C69.6459 26.505 69.7659 26.7267 69.8825 26.95C69.9659 27.11 70.0492 27.2667 70.1325 27.42C70.2159 27.5733 70.3059 27.73 70.4025 27.89V27.885C70.4925 28.035 70.5875 28.17 70.6875 28.29C70.7909 28.41 70.9009 28.5133 71.0175 28.6C71.1375 28.6867 71.2675 28.7533 71.4075 28.8C71.5509 28.8467 71.7075 28.87 71.8775 28.87H72.1925V30.15H72.0475C71.7809 30.15 71.5392 30.1317 71.3225 30.095C71.1059 30.0583 70.9042 30 70.7175 29.92C70.5342 29.84 70.3609 29.7383 70.1975 29.615C70.0375 29.4883 69.8792 29.3367 69.7225 29.16C69.6059 29.3333 69.4742 29.4817 69.3275 29.605C69.1809 29.725 69.0225 29.825 68.8525 29.905C68.6825 29.9817 68.5025 30.0383 68.3125 30.075C68.1259 30.115 67.9325 30.14 67.7325 30.15H66.0525V28.87ZM76.6784 28.87V30.15H76.5784C76.2551 30.15 75.9817 30.0983 75.7584 29.995C75.5351 29.8917 75.3451 29.7583 75.1884 29.595C75.0784 29.735 74.9151 29.8433 74.6984 29.92C74.4851 29.9933 74.2467 30.0467 73.9834 30.08C73.7201 30.1167 73.4484 30.1367 73.1684 30.14C72.8917 30.1467 72.6367 30.15 72.4034 30.15H72.2184V28.87H72.4034C72.7934 28.87 73.1217 28.8483 73.3884 28.805C73.6551 28.7583 73.8701 28.6917 74.0334 28.605C74.2001 28.5183 74.3201 28.41 74.3934 28.28C74.4667 28.1467 74.5034 27.9933 74.5034 27.82C74.5034 27.7067 74.4817 27.5567 74.4384 27.37C74.3951 27.18 74.3301 26.9367 74.2434 26.64L75.4734 26.295C75.5167 26.4417 75.5501 26.5717 75.5734 26.685C75.6001 26.795 75.6201 26.9067 75.6334 27.02C75.6501 27.13 75.6634 27.25 75.6734 27.38C75.6867 27.5067 75.7001 27.6583 75.7134 27.835C75.7234 27.9417 75.7484 28.0567 75.7884 28.18C75.8284 28.3 75.8834 28.4117 75.9534 28.515C76.0267 28.615 76.1151 28.7 76.2184 28.77C76.3217 28.8367 76.4417 28.87 76.5784 28.87H76.6784ZM74.0784 31.63L73.2284 32.48L72.3684 31.625L73.2184 30.77L74.0784 31.63ZM75.9684 31.635L75.1184 32.49L74.2584 31.63L75.1084 30.78L75.9684 31.635ZM76.6997 28.87H77.0647C77.1847 28.87 77.2963 28.86 77.3997 28.84C77.503 28.82 77.5947 28.7783 77.6747 28.715C77.7547 28.6483 77.8197 28.5567 77.8697 28.44C77.9197 28.3233 77.9513 28.1667 77.9647 27.97C77.9647 27.8933 77.9663 27.76 77.9697 27.57C77.9763 27.3767 77.9813 27.1483 77.9847 26.885C77.988 26.6183 77.9913 26.3267 77.9947 26.01C77.998 25.6933 77.9997 25.37 77.9997 25.04C77.9997 24.7833 77.998 24.5317 77.9947 24.285C77.9947 24.035 77.9913 23.795 77.9847 23.565C77.9813 23.335 77.973 23.1183 77.9597 22.915C77.9497 22.7117 77.9347 22.5267 77.9147 22.36L79.1897 22.195C79.213 22.375 79.2313 22.5783 79.2447 22.805C79.258 23.0317 79.268 23.2733 79.2747 23.53C79.2847 23.7833 79.2897 24.05 79.2897 24.33C79.293 24.6067 79.2947 24.8867 79.2947 25.17C79.2947 25.8 79.288 26.3483 79.2747 26.815C79.2647 27.2817 79.2597 27.695 79.2597 28.055C79.2597 28.3083 79.3247 28.5083 79.4547 28.655C79.5847 28.7983 79.778 28.87 80.0347 28.87H80.1447V30.15H80.0347C80.0147 30.15 79.9963 30.15 79.9797 30.15C79.8497 30.15 79.7213 30.1383 79.5947 30.115C79.4713 30.095 79.3513 30.0633 79.2347 30.02C79.1213 29.98 79.0163 29.9317 78.9197 29.875C78.823 29.8183 78.738 29.76 78.6647 29.7C78.568 29.7933 78.4613 29.87 78.3447 29.93C78.2313 29.9867 78.1147 30.0317 77.9947 30.065C77.8747 30.0983 77.7563 30.12 77.6397 30.13C77.523 30.1433 77.418 30.15 77.3247 30.15H76.6997V28.87ZM80.1702 28.87H81.2352C81.3919 28.87 81.5602 28.8617 81.7402 28.845C81.9235 28.825 82.0919 28.7867 82.2452 28.73C82.4019 28.67 82.5302 28.585 82.6302 28.475C82.7335 28.365 82.7852 28.2183 82.7852 28.035C82.7852 27.9483 82.7669 27.8267 82.7302 27.67C82.6935 27.5133 82.6452 27.34 82.5852 27.15C82.5252 26.96 82.4535 26.7633 82.3702 26.56C82.2902 26.3567 82.2052 26.1667 82.1152 25.99L83.2702 25.42C83.3535 25.61 83.4369 25.8117 83.5202 26.025C83.6035 26.2383 83.6769 26.4583 83.7402 26.685C83.8069 26.9083 83.8602 27.1333 83.9002 27.36C83.9402 27.5867 83.9602 27.8083 83.9602 28.025C83.9602 28.4117 83.8885 28.74 83.7452 29.01C83.6019 29.28 83.4052 29.5 83.1552 29.67C82.9085 29.8367 82.6185 29.9583 82.2852 30.035C81.9552 30.1117 81.6019 30.15 81.2252 30.15H80.1702V28.87ZM82.2752 31.855L83.1252 31.005L83.9852 31.86L83.1352 32.715L82.2752 31.855ZM80.3852 31.85L81.2352 30.995L82.0952 31.855L81.2452 32.705L80.3852 31.85ZM82.9652 33.3L82.1852 34.08L81.4002 33.295L82.1852 32.515L82.9652 33.3ZM86.6666 22.195C86.7499 22.8317 86.8082 23.44 86.8416 24.02C86.8749 24.5967 86.8949 25.1617 86.9016 25.715C86.9082 26.185 86.9099 26.62 86.9066 27.02C86.9066 27.42 86.9032 27.7933 86.8966 28.14C86.8899 28.4833 86.8799 28.805 86.8666 29.105C86.8532 29.4017 86.8399 29.68 86.8266 29.94L85.5166 30.14C85.5866 29.04 85.6216 28.0683 85.6216 27.225C85.6216 26.885 85.6166 26.5667 85.6066 26.27C85.5799 25.5867 85.5499 24.945 85.5166 24.345C85.4832 23.7417 85.4382 23.165 85.3816 22.615L86.6666 22.195ZM96.2919 30.15C95.9319 30.1467 95.5669 30.1317 95.1969 30.105C94.8269 30.0783 94.4703 30.0317 94.1269 29.965C93.7836 29.895 93.4603 29.8017 93.1569 29.685C92.8536 29.565 92.5903 29.41 92.3669 29.22C92.1436 29.03 91.9669 28.8 91.8369 28.53C91.7069 28.2567 91.6419 27.935 91.6419 27.565C91.6419 27.3817 91.6619 27.2067 91.7019 27.04C91.7419 26.87 91.7936 26.705 91.8569 26.545C91.9203 26.385 91.9919 26.23 92.0719 26.08C92.1519 25.9267 92.2319 25.775 92.3119 25.625L93.2419 26.405C93.1853 26.4817 93.1203 26.5867 93.0469 26.72C92.9769 26.8533 92.9136 26.995 92.8569 27.145C92.8036 27.295 92.7669 27.44 92.7469 27.58C92.7403 27.6267 92.7369 27.6717 92.7369 27.715C92.7369 27.7983 92.7519 27.8717 92.7819 27.935C92.8553 28.085 92.9936 28.2183 93.1969 28.335C93.4036 28.4483 93.6603 28.545 93.9669 28.625C94.2769 28.7017 94.6286 28.76 95.0219 28.8C95.4186 28.84 95.8419 28.86 96.2919 28.86C96.5419 28.86 96.8236 28.8517 97.1369 28.835C97.4536 28.8183 97.7786 28.7867 98.1119 28.74C98.4486 28.6933 98.7786 28.63 99.1019 28.55C99.4286 28.4667 99.7269 28.3583 99.9969 28.225C99.9569 28.0317 99.9019 27.845 99.8319 27.665C99.7653 27.485 99.6886 27.3083 99.6019 27.135C99.5153 26.9617 99.4236 26.7917 99.3269 26.625C99.2303 26.455 99.1319 26.285 99.0319 26.115L100.102 25.42C100.112 25.42 100.142 25.47 100.192 25.57C100.245 25.6667 100.309 25.795 100.382 25.955C100.459 26.115 100.539 26.2967 100.622 26.5C100.705 26.7033 100.782 26.9083 100.852 27.115C100.922 27.3217 100.98 27.5217 101.027 27.715C101.074 27.905 101.097 28.07 101.097 28.21C101.097 28.4067 101.047 28.585 100.947 28.745C100.847 28.905 100.71 29.05 100.537 29.18C100.364 29.31 100.162 29.425 99.9319 29.525C99.7019 29.6217 99.4569 29.7067 99.1969 29.78C98.9403 29.85 98.6753 29.91 98.4019 29.96C98.1319 30.01 97.8686 30.0483 97.6119 30.075C97.3553 30.105 97.1136 30.125 96.8869 30.135C96.7069 30.145 96.5436 30.15 96.3969 30.15C96.3603 30.15 96.3253 30.15 96.2919 30.15ZM97.2319 31.775L96.2719 32.735L95.3169 31.775L96.2719 30.82L97.2319 31.775ZM104.199 26.9C104.113 26.9 104.019 26.9367 103.919 27.01C103.819 27.0833 103.728 27.1783 103.644 27.295C103.561 27.4083 103.491 27.535 103.434 27.675C103.381 27.815 103.354 27.9517 103.354 28.085C103.354 28.225 103.386 28.3417 103.449 28.435C103.516 28.525 103.599 28.5983 103.699 28.655C103.803 28.7117 103.918 28.755 104.044 28.785C104.174 28.8117 104.303 28.8317 104.429 28.845C104.499 28.8483 104.576 28.8517 104.659 28.855C104.743 28.8583 104.828 28.8617 104.914 28.865C105.004 28.865 105.093 28.8667 105.179 28.87C105.266 28.87 105.348 28.87 105.424 28.87C105.414 28.7467 105.389 28.6133 105.349 28.47C105.313 28.3233 105.264 28.1767 105.204 28.03C105.144 27.8833 105.076 27.7433 104.999 27.61C104.923 27.4733 104.839 27.3533 104.749 27.25C104.663 27.1433 104.573 27.0583 104.479 26.995C104.386 26.9317 104.293 26.9 104.199 26.9ZM101.929 32.4C102.419 32.3033 102.861 32.1733 103.254 32.01C103.651 31.85 103.994 31.67 104.284 31.47C104.574 31.27 104.809 31.0567 104.989 30.83C105.173 30.6033 105.294 30.3767 105.354 30.15C105.084 30.15 104.821 30.1417 104.564 30.125C104.308 30.1083 104.064 30.075 103.834 30.025C103.608 29.9783 103.398 29.9117 103.204 29.825C103.014 29.735 102.849 29.6183 102.709 29.475C102.573 29.3283 102.466 29.1517 102.389 28.945C102.313 28.7383 102.274 28.4917 102.274 28.205C102.274 28.0217 102.294 27.83 102.334 27.63C102.374 27.43 102.431 27.235 102.504 27.045C102.581 26.8517 102.674 26.67 102.784 26.5C102.894 26.3267 103.021 26.175 103.164 26.045C103.308 25.9117 103.466 25.8067 103.639 25.73C103.813 25.6533 103.999 25.615 104.199 25.615C104.716 25.615 105.188 25.845 105.614 26.305C105.768 26.475 105.904 26.6683 106.024 26.885C106.148 27.0983 106.251 27.3283 106.334 27.575C106.421 27.8183 106.486 28.0733 106.529 28.34C106.576 28.6067 106.599 28.8767 106.599 29.15C106.599 29.5767 106.544 29.975 106.434 30.345C106.328 30.7183 106.176 31.0617 105.979 31.375C105.786 31.6883 105.554 31.97 105.284 32.22C105.014 32.4733 104.718 32.695 104.394 32.885C104.071 33.075 103.726 33.2333 103.359 33.36C102.993 33.49 102.616 33.5867 102.229 33.65L101.929 32.4Z" fill="white"></path><path d="M34.3365 31.4379C34.0369 32.13 33.6823 32.767 33.2715 33.3528C32.7114 34.1512 32.2529 34.7039 31.8995 35.0109C31.3517 35.5147 30.7647 35.7727 30.1362 35.7873C29.685 35.7873 29.1408 35.6589 28.5075 35.3985C27.872 35.1393 27.288 35.0109 26.754 35.0109C26.1939 35.0109 25.5933 35.1393 24.9508 35.3985C24.3074 35.659 23.7891 35.7947 23.3927 35.8081C22.79 35.8338 22.1893 35.5685 21.5896 35.0109C21.2069 34.677 20.7282 34.1048 20.1547 33.2941C19.5394 32.4283 19.0335 31.4244 18.6372 30.2799C18.2128 29.0437 18 27.8465 18 26.6876C18 25.36 18.2869 24.215 18.8615 23.2554C19.313 22.4847 19.9138 21.8767 20.6657 21.4304C21.4176 20.9841 22.23 20.7567 23.1049 20.7421C23.5836 20.7421 24.2114 20.8902 24.9916 21.1812C25.7695 21.4732 26.269 21.6213 26.488 21.6213C26.6517 21.6213 27.2066 21.4482 28.1473 21.103C29.0369 20.7829 29.7877 20.6503 30.4028 20.7025C32.0694 20.837 33.3216 21.494 34.1543 22.6777C32.6637 23.5808 31.9264 24.8458 31.941 26.4686C31.9545 27.7326 32.413 28.7844 33.3142 29.6196C33.7226 30.0072 34.1787 30.3068 34.6862 30.5196C34.5762 30.8387 34.46 31.1444 34.3365 31.4379V31.4379ZM30.5141 16.3963C30.5141 17.387 30.1521 18.3121 29.4307 19.1683C28.56 20.1861 27.507 20.7743 26.365 20.6815C26.3497 20.5569 26.342 20.4315 26.342 20.3061C26.342 19.355 26.756 18.3371 27.4913 17.5049C27.8584 17.0835 28.3253 16.7332 28.8914 16.4537C29.4563 16.1783 29.9907 16.0261 30.4933 16C30.5079 16.1324 30.5141 16.2649 30.5141 16.3963V16.3963Z" fill="white"></path></svg>