<svg width="120" height="40" viewBox="0 0 122 43" fill="none" xmlns="http://www.w3.org/2000/svg"><rect width="122" height="43" rx="6" fill="black"></rect><path d="M54.3336 15.9183L54.1879 12.2522C54.1879 12.2343 54.1892 12.1947 54.1917 12.1333C54.1943 12.0694 54.2058 11.9966 54.2263 11.9148C54.2493 11.8329 54.2851 11.7473 54.3336 11.6578C54.3822 11.5683 54.4525 11.4891 54.5445 11.4201C54.5778 11.3868 54.6238 11.3574 54.6826 11.3319C54.7414 11.3063 54.8053 11.2871 54.8743 11.2743C54.9434 11.2616 55.0137 11.2552 55.0852 11.2552C55.1568 11.2526 55.222 11.259 55.2808 11.2743C55.3268 11.1516 55.3792 11.0264 55.438 10.8985C55.4994 10.7682 55.5671 10.6429 55.6413 10.5227C55.718 10.4026 55.8011 10.2901 55.8905 10.1853C55.9826 10.0779 56.0823 9.98458 56.1897 9.90533C56.297 9.82608 56.4121 9.76472 56.5348 9.72126C56.6498 9.68036 56.7738 9.6599 56.9068 9.6599C56.9144 9.6599 56.9221 9.6599 56.9298 9.6599C57.1675 9.6599 57.3669 9.70464 57.528 9.79412C57.6916 9.88104 57.8271 9.99992 57.9345 10.1508C58.0444 10.299 58.1313 10.4729 58.1953 10.6723C58.2592 10.8717 58.3129 11.0839 58.3563 11.3089C58.3819 11.4392 58.4062 11.5556 58.4292 11.6578C58.4522 11.7575 58.4777 11.8432 58.5059 11.9148C58.5365 11.9863 58.5685 12.0413 58.6017 12.0797C58.6375 12.1154 58.6797 12.1333 58.7283 12.1333H58.8472V13.115H58.7014C58.5608 13.1125 58.4356 13.0741 58.3256 13C58.2183 12.9233 58.1186 12.8223 58.0265 12.6971C57.9984 12.7226 57.9652 12.7507 57.9268 12.7814C57.891 12.8121 57.8527 12.8428 57.8118 12.8735C57.7709 12.9016 57.7287 12.9259 57.6852 12.9463C57.6418 12.9668 57.5996 12.9808 57.5587 12.9885C57.5382 12.9911 57.5152 12.9923 57.4897 12.9923C57.436 12.9923 57.3618 12.9847 57.2672 12.9693C57.1726 12.9514 57.0538 12.9233 56.9106 12.885C56.7674 12.8441 56.614 12.7968 56.4504 12.7431C56.2868 12.6894 56.1245 12.6357 55.9634 12.582C55.8023 12.5258 55.6477 12.4721 55.4994 12.4209C55.3511 12.3673 55.2207 12.3225 55.1083 12.2867L55.3038 15.7649L54.3336 15.9183ZM56.2625 11.1708C56.2293 11.2347 56.1986 11.2986 56.1705 11.3625C56.1449 11.4265 56.1194 11.4878 56.0938 11.5466C56.1782 11.5824 56.2868 11.6271 56.4197 11.6808C56.5527 11.7345 56.6959 11.7882 56.8492 11.8419C57.0026 11.8956 57.1573 11.9442 57.3133 11.9876C57.4718 12.0285 57.6162 12.0541 57.7466 12.0643C57.721 11.9569 57.6955 11.8457 57.6699 11.7307C57.6443 11.6156 57.6162 11.5044 57.5855 11.3971C57.5548 11.2897 57.5191 11.1887 57.4781 11.0941C57.4372 10.997 57.3887 10.9139 57.3324 10.8449C57.2787 10.7758 57.2161 10.7234 57.1445 10.6876C57.0857 10.6569 57.0193 10.6416 56.9451 10.6416C56.9298 10.6416 56.9132 10.6429 56.8953 10.6454C56.862 10.648 56.8186 10.6595 56.7649 10.68C56.7137 10.7004 56.6588 10.7311 56.6 10.772C56.5412 10.8129 56.4811 10.8666 56.4197 10.9331C56.3609 10.997 56.3085 11.0762 56.2625 11.1708ZM62.3406 12.1333V13.115H62.2639C62.0159 13.115 61.8063 13.0754 61.635 12.9962C61.4637 12.9169 61.318 12.8147 61.1979 12.6894C61.1135 12.7968 60.9882 12.8798 60.822 12.9386C60.6584 12.9949 60.4756 13.0358 60.2737 13.0614C60.0717 13.0895 59.8633 13.1048 59.6486 13.1074C59.4364 13.1125 59.2408 13.115 59.0619 13.115H58.92V12.1333H59.0619C59.361 12.1333 59.6128 12.1167 59.8173 12.0835C60.0219 12.0477 60.1867 11.9966 60.312 11.9301C60.4398 11.8636 60.5319 11.7805 60.5881 11.6808C60.6444 11.5786 60.6725 11.461 60.6725 11.328C60.6725 11.2411 60.6559 11.1261 60.6226 10.9829C60.5894 10.8372 60.5395 10.6506 60.4731 10.423L61.4164 10.1584C61.4497 10.2709 61.4752 10.3706 61.4931 10.4575C61.5136 10.5419 61.5289 10.6275 61.5391 10.7145C61.5519 10.7988 61.5622 10.8909 61.5698 10.9906C61.5801 11.0877 61.5903 11.204 61.6005 11.3395C61.6082 11.4213 61.6273 11.5095 61.658 11.6041C61.6887 11.6962 61.7309 11.7818 61.7846 11.8611C61.8408 11.9378 61.9086 12.003 61.9878 12.0566C62.0671 12.1078 62.1591 12.1333 62.2639 12.1333H62.3406ZM60.3465 14.2501L59.6946 14.9021L59.035 14.2463L59.6869 13.5906L60.3465 14.2501ZM61.7961 14.254L61.1442 14.9097L60.4846 14.2501L61.1365 13.5982L61.7961 14.254ZM62.4094 12.1333H62.4861C62.6522 12.1333 62.8171 12.1333 62.9807 12.1333C63.1469 12.1333 63.2875 12.1269 63.4026 12.1142C63.3514 12.0809 63.2952 12.0336 63.2338 11.9723C63.1725 11.9084 63.115 11.8342 63.0613 11.7499C63.0101 11.6629 62.9654 11.5658 62.9271 11.4584C62.8913 11.3485 62.8721 11.2283 62.8695 11.0979C62.867 11.0647 62.8657 11.0315 62.8657 10.9982C62.8657 10.8934 62.8798 10.7771 62.9079 10.6493C62.9386 10.5189 62.9871 10.386 63.0536 10.2505C63.1226 10.115 63.2057 9.98842 63.3029 9.87082C63.4 9.75066 63.5074 9.64712 63.625 9.5602C63.7426 9.47072 63.8691 9.4017 64.0046 9.35312C64.1248 9.30966 64.2488 9.28793 64.3766 9.28793C64.3919 9.28793 64.406 9.28793 64.4188 9.28793C64.6259 9.2956 64.8176 9.34929 64.994 9.44899C65.173 9.54614 65.3276 9.67269 65.458 9.82863C65.5884 9.98458 65.6907 10.1623 65.7648 10.3617C65.8389 10.5585 65.876 10.7605 65.876 10.9676C65.876 11.167 65.8389 11.36 65.7648 11.5466C65.6932 11.7307 65.5999 11.9033 65.4849 12.0643C65.6076 12.0848 65.7405 12.1014 65.8837 12.1142C66.0294 12.1269 66.1674 12.1333 66.2978 12.1333H66.4014V13.115H66.3247C66.1278 13.115 65.9374 13.1112 65.7533 13.1035C65.5718 13.0984 65.4005 13.0844 65.2394 13.0614C65.0784 13.0383 64.9275 13.0064 64.7869 12.9655C64.6489 12.922 64.5262 12.8632 64.4188 12.7891C64.3421 12.8453 64.2322 12.8939 64.089 12.9348C63.9484 12.9757 63.7899 13.0089 63.6135 13.0345C63.4371 13.0626 63.2505 13.0831 63.0536 13.0959C62.8593 13.1087 62.6701 13.115 62.4861 13.115H62.4094V12.1333ZM64.4073 10.2581C64.3408 10.2709 64.2641 10.2978 64.1772 10.3387C64.0928 10.377 64.0123 10.432 63.9356 10.5036C63.8615 10.5726 63.7975 10.6582 63.7439 10.7605C63.6927 10.8627 63.6672 10.9842 63.6672 11.1248C63.6672 11.1708 63.6889 11.2309 63.7324 11.305C63.7758 11.3766 63.8333 11.4495 63.9049 11.5236C63.9765 11.5952 64.0583 11.6629 64.1503 11.7269C64.2424 11.7882 64.337 11.8317 64.4341 11.8572C64.5108 11.8189 64.585 11.769 64.6565 11.7077C64.7307 11.6463 64.7959 11.5799 64.8521 11.5083C64.9084 11.4341 64.9531 11.3587 64.9863 11.282C65.0221 11.2028 65.04 11.1273 65.04 11.0558C65.04 10.9561 65.0183 10.8615 64.9748 10.772C64.9339 10.68 64.8815 10.5981 64.8176 10.5266C64.7537 10.455 64.6847 10.3962 64.6105 10.3502C64.5389 10.3016 64.4712 10.2709 64.4073 10.2581ZM64.3114 8.0608L63.6595 8.71271L62.9999 8.05697L63.6518 7.40122L64.3114 8.0608ZM65.761 8.06463L65.109 8.72038L64.4495 8.0608L65.1014 7.40889L65.761 8.06463ZM69.8964 12.1333V13.115H69.8197C69.5718 13.115 69.3621 13.0754 69.1908 12.9962C69.0195 12.9169 68.8738 12.8147 68.7537 12.6894C68.6693 12.7968 68.544 12.8798 68.3779 12.9386C68.2142 12.9949 68.0315 13.0358 67.8295 13.0614C67.6275 13.0895 67.4192 13.1048 67.2044 13.1074C66.9922 13.1125 66.7967 13.115 66.6177 13.115H66.4758V12.1333H66.6177C66.9168 12.1333 67.1686 12.1167 67.3731 12.0835C67.5777 12.0477 67.7426 11.9966 67.8678 11.9301C67.9957 11.8636 68.0877 11.7805 68.1439 11.6808C68.2002 11.5786 68.2283 11.461 68.2283 11.328C68.2283 11.2411 68.2117 11.1261 68.1785 10.9829C68.1452 10.8372 68.0954 10.6506 68.0289 10.423L68.9723 10.1584C69.0055 10.2709 69.0311 10.3706 69.0489 10.4575C69.0694 10.5419 69.0847 10.6275 69.095 10.7145C69.1077 10.7988 69.118 10.8909 69.1256 10.9906C69.1359 11.0877 69.1461 11.204 69.1563 11.3395C69.164 11.4213 69.1832 11.5095 69.2138 11.6041C69.2445 11.6962 69.2867 11.7818 69.3404 11.8611C69.3966 11.9378 69.4644 12.003 69.5436 12.0566C69.6229 12.1078 69.7149 12.1333 69.8197 12.1333H69.8964ZM68.1938 8.73572L67.5419 9.38763L66.8823 8.73189L67.5342 8.07614L68.1938 8.73572ZM69.6433 8.73956L68.9914 9.3953L68.3318 8.73572L68.9838 8.08381L69.6433 8.73956ZM70.1262 12.1333C70.2566 12.1333 70.3793 12.1078 70.4944 12.0566C70.612 12.003 70.7232 11.9084 70.828 11.7729C70.9354 11.6348 71.0351 11.4469 71.1271 11.2092C71.2217 10.9714 71.3112 10.6672 71.3955 10.2965L72.3351 10.5611C72.2737 10.7733 72.2187 10.9778 72.1702 11.1746C72.1216 11.3689 72.0948 11.5364 72.0896 11.677C72.0896 11.6898 72.0896 11.7013 72.0896 11.7115C72.0896 11.7575 72.0935 11.8061 72.1011 11.8572C72.1114 11.9084 72.128 11.9557 72.151 11.9991C72.174 12.0426 72.2047 12.0771 72.243 12.1027C72.2788 12.1257 72.3184 12.1372 72.3619 12.1372C72.367 12.1372 72.3721 12.1372 72.3772 12.1372C72.4718 12.1346 72.5613 12.1001 72.6457 12.0336C72.73 11.9672 72.808 11.8815 72.8796 11.7767C72.9537 11.6719 73.0202 11.553 73.079 11.4201C73.1404 11.2871 73.1941 11.1529 73.2401 11.0174C73.2886 10.8794 73.3296 10.7451 73.3628 10.6148C73.396 10.4844 73.4216 10.3693 73.4395 10.2696L74.3445 10.4537C74.3113 10.6071 74.2844 10.749 74.264 10.8794C74.2435 11.0072 74.2307 11.1363 74.2256 11.2667C74.2231 11.2999 74.2218 11.3331 74.2218 11.3664C74.2218 11.4303 74.2256 11.5057 74.2333 11.5926C74.2435 11.677 74.2652 11.7601 74.2985 11.8419C74.3317 11.9237 74.3777 11.9915 74.4365 12.0451C74.4979 12.0963 74.5771 12.1218 74.6743 12.1218C74.7842 12.1218 74.8724 12.0797 74.9389 11.9953C75.0079 11.9084 75.0603 11.7984 75.0961 11.6655C75.1319 11.5326 75.1549 11.3856 75.1651 11.2245C75.1779 11.0609 75.1843 10.9024 75.1843 10.749C75.1843 10.7004 75.183 10.6621 75.1805 10.6339C75.1805 10.6033 75.1805 10.5751 75.1805 10.5496C75.1805 10.524 75.1792 10.4959 75.1766 10.4652C75.1766 10.432 75.1766 10.3872 75.1766 10.331L76.1468 10.2543C76.1545 10.3387 76.1622 10.4217 76.1698 10.5036C76.1775 10.5828 76.1852 10.6659 76.1929 10.7528C76.2005 10.8372 76.2095 10.9279 76.2197 11.0251C76.2325 11.1197 76.2465 11.2232 76.2619 11.3357C76.2798 11.4686 76.3168 11.585 76.3731 11.6847C76.4319 11.7844 76.4996 11.8675 76.5763 11.9339C76.653 12.0004 76.7348 12.0503 76.8218 12.0835C76.9112 12.1167 76.9956 12.1333 77.0749 12.1333H77.2167V13.115H77.094C76.9688 13.115 76.8448 13.1023 76.7221 13.0767C76.6019 13.0511 76.4869 13.0115 76.3769 12.9578C76.267 12.9041 76.1635 12.8364 76.0663 12.7546C75.9717 12.6702 75.8886 12.5705 75.817 12.4555C75.6943 12.6549 75.5333 12.8147 75.3339 12.9348C75.1345 13.055 74.9146 13.115 74.6743 13.115C74.434 13.115 74.2154 13.0575 74.0185 12.9425C73.8242 12.8274 73.6696 12.674 73.5545 12.4823C73.4804 12.5769 73.3999 12.6638 73.3129 12.7431C73.2286 12.8198 73.1365 12.8875 73.0368 12.9463C72.9397 13.0026 72.8361 13.046 72.7262 13.0767C72.6163 13.1099 72.5012 13.1265 72.3811 13.1265C72.266 13.1265 72.1548 13.1112 72.0475 13.0805C71.9401 13.0524 71.8404 13.0102 71.7483 12.954C71.6563 12.8977 71.5732 12.83 71.4991 12.7507C71.4249 12.6689 71.3636 12.5782 71.315 12.4785C71.1872 12.7034 71.03 12.8658 70.8433 12.9655C70.6567 13.0652 70.419 13.115 70.1301 13.115H69.9652V12.1333H70.1262ZM77.3641 12.1333C77.5508 12.1333 77.7131 12.0988 77.8512 12.0298C77.9892 11.9582 78.1106 11.8662 78.2155 11.7537C78.3228 11.6412 78.4161 11.5147 78.4954 11.3741C78.5772 11.2334 78.6539 11.0928 78.7255 10.9522C78.7971 10.8039 78.875 10.6569 78.9594 10.5112C79.0438 10.3655 79.1396 10.2351 79.247 10.1201C79.3544 10.0025 79.4771 9.90789 79.6152 9.8363C79.7532 9.76217 79.913 9.7251 80.0945 9.7251C80.2581 9.7251 80.4077 9.75066 80.5432 9.80179C80.6812 9.85037 80.8039 9.91939 80.9113 10.0089C81.0212 10.0958 81.1171 10.1981 81.1989 10.3157C81.2807 10.4307 81.3485 10.556 81.4022 10.6915C81.4559 10.8244 81.4955 10.9625 81.521 11.1056C81.5492 11.2488 81.5632 11.3907 81.5632 11.5313C81.5632 11.6617 81.5517 11.7882 81.5287 11.9109C81.5083 12.0336 81.4763 12.1525 81.4328 12.2676C81.3843 12.3903 81.3204 12.5015 81.2411 12.6012C81.1644 12.7009 81.0762 12.7865 80.9765 12.8581C80.8768 12.9271 80.7694 12.9808 80.6544 13.0192C80.5393 13.0575 80.4192 13.0767 80.2939 13.0767C80.1865 13.0767 80.0728 13.0626 79.9526 13.0345C79.835 13.0089 79.7149 12.9732 79.5921 12.9271C79.5385 12.9041 79.4784 12.8773 79.4119 12.8466C79.3454 12.8134 79.2777 12.7776 79.2087 12.7392C79.1396 12.7009 79.0706 12.6613 79.0016 12.6204C78.9351 12.5769 78.8725 12.5347 78.8137 12.4938C78.6117 12.6932 78.3944 12.8466 78.1618 12.954C77.9317 13.0614 77.6658 13.115 77.3641 13.115H77.2874V12.1333H77.3641ZM79.3889 11.6847C79.4579 11.7307 79.5436 11.7818 79.6458 11.8381C79.7507 11.8943 79.8593 11.9454 79.9718 11.9915C80.0843 12.0375 80.1955 12.072 80.3054 12.095C80.3668 12.1103 80.423 12.118 80.4741 12.118C80.5151 12.118 80.5521 12.1129 80.5854 12.1027C80.6109 12.0975 80.6378 12.0822 80.6659 12.0566C80.6966 12.0285 80.7234 11.9915 80.7464 11.9454C80.772 11.8994 80.7924 11.8457 80.8078 11.7844C80.818 11.7332 80.8231 11.677 80.8231 11.6156C80.8231 11.6029 80.8231 11.5901 80.8231 11.5773C80.8231 11.4623 80.8027 11.3472 80.7618 11.2322C80.7234 11.1146 80.6697 11.011 80.6007 10.9215C80.5317 10.8321 80.4499 10.763 80.3553 10.7145C80.2914 10.6838 80.2223 10.6685 80.1482 10.6685C80.1124 10.6685 80.0753 10.6723 80.037 10.68C80.0012 10.6876 79.9654 10.7081 79.9296 10.7413C79.8964 10.772 79.8555 10.8257 79.8069 10.9024C79.7583 10.9765 79.7008 11.0775 79.6343 11.2053C79.5679 11.3306 79.4861 11.4904 79.3889 11.6847ZM85.6102 11.608C85.7073 11.6693 85.8236 11.732 85.9591 11.7959C86.0972 11.8598 86.2391 11.9173 86.3848 11.9684C86.5331 12.0196 86.6775 12.0618 86.8181 12.095C86.9613 12.1282 87.0865 12.1448 87.1939 12.1448C87.2374 12.1448 87.2911 12.1436 87.355 12.141C87.4189 12.1385 87.4866 12.1333 87.5582 12.1257C87.6298 12.1154 87.7014 12.1014 87.773 12.0835C87.8446 12.063 87.9085 12.0362 87.9647 12.003C88.0235 11.9672 88.0708 11.9237 88.1066 11.8726C88.1424 11.8189 88.1616 11.7537 88.1641 11.677C88.1641 11.6719 88.1641 11.6681 88.1641 11.6655C88.1641 11.5632 88.1347 11.4482 88.0759 11.3204C88.0197 11.19 87.9417 11.0545 87.842 10.9139C87.7423 10.7707 87.6273 10.6275 87.4969 10.4844C87.3665 10.3412 87.231 10.2044 87.0904 10.0741C86.9498 9.94112 86.8079 9.81969 86.6647 9.70976C86.5241 9.59727 86.3925 9.50268 86.2697 9.42598L86.8411 8.5785C87.0763 8.73956 87.3077 8.92107 87.5352 9.12303C87.7653 9.325 87.9762 9.54103 88.168 9.77111C88.3623 9.99864 88.5297 10.2364 88.6703 10.4844C88.8135 10.7324 88.9157 10.9829 88.9771 11.236C89.0103 11.3817 89.0269 11.5211 89.0269 11.654C89.0269 11.7818 89.0027 11.9352 88.9541 12.1142C88.9081 12.2931 88.802 12.4695 88.6358 12.6434C88.4696 12.8147 88.2587 12.9463 88.0031 13.0383C87.7832 13.1176 87.5416 13.1572 87.2783 13.1572C87.2348 13.1572 87.1901 13.1559 87.1441 13.1534C86.9753 13.1534 86.8041 13.1368 86.6302 13.1035C86.4564 13.0729 86.2851 13.0294 86.1163 12.9732C85.9502 12.9169 85.7891 12.853 85.6332 12.7814C85.4798 12.7073 85.3366 12.6293 85.2037 12.5475L85.6102 11.608ZM89.7486 14.8407C90.1244 14.7666 90.4632 14.6669 90.7649 14.5416C91.0691 14.4189 91.3324 14.2808 91.5548 14.1274C91.7772 13.974 91.9575 13.8104 92.0955 13.6366C92.2361 13.4627 92.3294 13.2889 92.3755 13.115C92.1684 13.115 91.9664 13.1087 91.7696 13.0959C91.5727 13.0831 91.3861 13.0575 91.2097 13.0192C91.0358 12.9834 90.8748 12.9323 90.7265 12.8658C90.5808 12.7968 90.4542 12.7073 90.3469 12.5973C90.242 12.4849 90.1602 12.3494 90.1014 12.1909C90.0426 12.0324 90.0132 11.8432 90.0132 11.6233C90.0132 11.4827 90.0286 11.3357 90.0593 11.1823C90.0899 11.0289 90.1334 10.8794 90.1896 10.7336C90.2484 10.5854 90.32 10.446 90.4044 10.3157C90.4887 10.1827 90.5859 10.0664 90.6958 9.96669C90.8058 9.86443 90.9272 9.7839 91.0601 9.7251C91.1931 9.6663 91.3362 9.6369 91.4896 9.6369C91.8859 9.6369 92.2476 9.8133 92.5749 10.1661C92.6822 10.2863 92.7794 10.4205 92.8663 10.5687C92.9532 10.717 93.0287 10.8755 93.0926 11.0443C93.1565 11.213 93.2076 11.3894 93.246 11.5735C93.2869 11.755 93.3124 11.9416 93.3227 12.1333H93.5796V13.115H93.2421C93.1552 13.4934 93.0082 13.8334 92.8011 14.1351C92.594 14.4393 92.3448 14.7039 92.0533 14.9289C91.7645 15.1539 91.4423 15.3392 91.087 15.4849C90.7316 15.6307 90.3622 15.7355 89.9787 15.7994L89.7486 14.8407ZM91.4896 10.6224C91.4232 10.6224 91.3516 10.6506 91.2749 10.7068C91.1982 10.763 91.1279 10.8359 91.064 10.9254C91.0001 11.0123 90.9464 11.1095 90.9029 11.2168C90.862 11.3242 90.8415 11.429 90.8415 11.5313C90.8415 11.6387 90.8658 11.7281 90.9144 11.7997C90.9655 11.8713 91.0295 11.9288 91.1061 11.9723C91.1854 12.0157 91.2736 12.049 91.3707 12.072C91.4705 12.0924 91.5689 12.1065 91.666 12.1142C91.7197 12.1193 91.7785 12.1231 91.8424 12.1257C91.9063 12.1257 91.9715 12.1269 92.038 12.1295C92.107 12.1321 92.1748 12.1333 92.2412 12.1333C92.3077 12.1333 92.3703 12.1333 92.4291 12.1333C92.4215 12.0387 92.4023 11.9365 92.3716 11.8266C92.3435 11.7141 92.3064 11.6016 92.2604 11.4891C92.2144 11.3766 92.162 11.2692 92.1032 11.167C92.0444 11.0622 91.9805 10.9701 91.9115 10.8909C91.845 10.8091 91.776 10.7439 91.7044 10.6953C91.6328 10.6467 91.5612 10.6224 91.4896 10.6224ZM93.648 12.1333H93.9279C94.02 12.1333 94.1056 12.1257 94.1849 12.1103C94.2641 12.095 94.3344 12.063 94.3958 12.0145C94.4571 11.9633 94.507 11.893 94.5453 11.8035C94.5837 11.7141 94.608 11.5939 94.6182 11.4431C94.6182 11.3843 94.6195 11.282 94.622 11.1363C94.6272 10.988 94.631 10.8129 94.6335 10.6109C94.6361 10.4064 94.6387 10.1827 94.6412 9.93984C94.6438 9.69697 94.645 9.44899 94.645 9.1959C94.645 8.99904 94.6438 8.80603 94.6412 8.61684C94.6412 8.4251 94.6387 8.24103 94.6335 8.06463C94.631 7.88823 94.6246 7.72206 94.6144 7.56611C94.6067 7.41017 94.5952 7.26828 94.5799 7.14045L95.5577 7.0139C95.5756 7.15196 95.5897 7.3079 95.5999 7.48175C95.6101 7.65559 95.6178 7.84094 95.6229 8.03779C95.6306 8.23209 95.6344 8.43661 95.6344 8.65136C95.637 8.86355 95.6383 9.0783 95.6383 9.2956C95.6383 9.77878 95.6331 10.1993 95.6229 10.5572C95.6152 10.9152 95.6114 11.2322 95.6114 11.5083C95.6114 11.7026 95.6613 11.856 95.761 11.9684C95.8607 12.0784 96.009 12.1333 96.2058 12.1333H96.2902V13.115H96.2058C96.1905 13.115 96.1764 13.115 96.1636 13.115C96.0639 13.115 95.9655 13.1061 95.8683 13.0882C95.7738 13.0729 95.6817 13.0486 95.5922 13.0153C95.5053 12.9847 95.4248 12.9476 95.3506 12.9041C95.2765 12.8607 95.2113 12.8159 95.1551 12.7699C95.0809 12.8415 94.9991 12.9003 94.9096 12.9463C94.8227 12.9898 94.7332 13.0243 94.6412 13.0499C94.5492 13.0754 94.4584 13.092 94.3689 13.0997C94.2795 13.1099 94.1989 13.115 94.1274 13.115H93.648V12.1333ZM96.3622 12.1333H96.9796C97.0997 12.1333 97.2224 12.1269 97.3477 12.1142C97.4755 12.0988 97.5906 12.0694 97.6928 12.026C97.7951 11.9799 97.8782 11.9148 97.9421 11.8304C98.0086 11.746 98.0418 11.6335 98.0418 11.4929C98.0418 11.4265 98.0277 11.3331 97.9996 11.213C97.9715 11.0928 97.9344 10.9599 97.8884 10.8142C97.8424 10.6685 97.7874 10.5176 97.7235 10.3617C97.6622 10.2057 97.597 10.06 97.5279 9.9245L98.4138 9.48734C98.4777 9.63306 98.5416 9.78773 98.6055 9.95135C98.6694 10.115 98.7257 10.2837 98.7743 10.4575C98.8254 10.6288 98.8663 10.8014 98.897 10.9752C98.9276 11.1491 98.943 11.3191 98.943 11.4853C98.943 11.7716 98.8944 12.0183 98.7973 12.2254C98.7001 12.4299 98.5646 12.5986 98.3908 12.7316C98.2169 12.8619 98.0086 12.9578 97.7657 13.0192C97.5254 13.0831 97.2608 13.115 96.9719 13.115H96.3622V12.1333ZM98.3217 8.18735L97.5855 8.92363L96.853 8.18735L97.5855 7.4549L98.3217 8.18735ZM100.941 7.0139C101.004 7.5022 101.049 7.96877 101.075 8.4136C101.1 8.85588 101.116 9.28921 101.121 9.71359C101.126 10.0741 101.127 10.4077 101.125 10.7145C101.125 11.0213 101.122 11.3076 101.117 11.5735C101.112 11.8368 101.104 12.0835 101.094 12.3136C101.084 12.5411 101.073 12.7546 101.063 12.954L100.059 13.1074C100.112 12.2637 100.139 11.5185 100.139 10.8717C100.139 10.6109 100.135 10.3668 100.128 10.1393C100.107 9.61517 100.084 9.12303 100.059 8.66286C100.033 8.20013 99.9984 7.75785 99.955 7.33603L100.941 7.0139ZM102.377 11.608C102.474 11.6693 102.59 11.732 102.725 11.7959C102.864 11.8598 103.005 11.9173 103.151 11.9684C103.299 12.0196 103.444 12.0618 103.584 12.095C103.728 12.1282 103.853 12.1448 103.96 12.1448C104.004 12.1448 104.057 12.1436 104.121 12.141C104.185 12.1385 104.253 12.1333 104.325 12.1257C104.396 12.1154 104.468 12.1014 104.539 12.0835C104.611 12.063 104.675 12.0362 104.731 12.003C104.79 11.9672 104.837 11.9237 104.873 11.8726C104.909 11.8189 104.928 11.7537 104.93 11.677C104.93 11.6719 104.93 11.6681 104.93 11.6655C104.93 11.5632 104.901 11.4482 104.842 11.3204C104.786 11.19 104.708 11.0545 104.608 10.9139C104.509 10.7707 104.394 10.6275 104.263 10.4844C104.133 10.3412 103.997 10.2044 103.857 10.0741C103.716 9.94112 103.574 9.81969 103.431 9.70976C103.29 9.59727 103.159 9.50268 103.036 9.42598L103.607 8.5785C103.843 8.73956 104.074 8.92107 104.302 9.12303C104.532 9.325 104.743 9.54103 104.934 9.77111C105.129 9.99864 105.296 10.2364 105.437 10.4844C105.58 10.7324 105.682 10.9829 105.743 11.236C105.777 11.3817 105.793 11.5211 105.793 11.654C105.793 11.7818 105.769 11.9352 105.72 12.1142C105.674 12.2931 105.568 12.4695 105.402 12.6434C105.236 12.8147 105.025 12.9463 104.769 13.0383C104.55 13.1176 104.308 13.1572 104.045 13.1572C104.001 13.1572 103.956 13.1559 103.91 13.1534C103.742 13.1534 103.57 13.1368 103.397 13.1035C103.223 13.0729 103.051 13.0294 102.883 12.9732C102.717 12.9169 102.555 12.853 102.4 12.7814C102.246 12.7073 102.103 12.6293 101.97 12.5475L102.377 11.608Z" fill="white"></path><path d="M34.1704 26.3082L36.1964 22.7986C36.3108 22.6018 36.2416 22.3519 36.0475 22.2376C35.8534 22.1232 35.6009 22.1897 35.4892 22.3865L33.4366 25.9413C31.8705 25.2261 30.1078 24.8272 28.212 24.8272C26.3162 24.8272 24.5534 25.2261 22.9874 25.9413L20.9348 22.3865C20.9078 22.3398 20.8719 22.2988 20.829 22.266C20.7862 22.2333 20.7373 22.2093 20.6852 22.1954C20.6331 22.1816 20.5787 22.1782 20.5253 22.1854C20.4718 22.1927 20.4203 22.2104 20.3738 22.2376C20.327 22.2646 20.2861 22.3005 20.2533 22.3433C20.2205 22.3861 20.1965 22.435 20.1827 22.4872C20.1688 22.5393 20.1654 22.5936 20.1727 22.6471C20.1799 22.7005 20.1977 22.752 20.2249 22.7986L22.2509 26.3083C18.7572 28.2014 16.3909 31.7376 16 35.8774H40.424C40.0331 31.7376 37.6668 28.2014 34.1704 26.3083V26.3082ZM22.6045 32.4474C22.0382 32.4474 21.5809 31.9875 21.5809 31.4238C21.5809 30.8575 22.0409 30.4002 22.6045 30.4002C23.1708 30.4002 23.6282 30.8601 23.6282 31.4238C23.631 31.9875 23.1709 32.4474 22.6045 32.4474ZM33.8168 32.4474C33.2505 32.4474 32.7931 31.9875 32.7931 31.4238C32.7931 30.8575 33.2531 30.4002 33.8168 30.4002C34.3831 30.4002 34.8404 30.8601 34.8404 31.4238C34.8432 31.9875 34.3831 32.4474 33.8168 32.4474Z" fill="#32DE84"></path><path d="M47.3869 26.5471C45.2204 26.5471 42.9927 28.2832 42.9927 31.322C42.9927 34.1 44.9514 36.0622 47.3869 36.0622C49.3974 36.0622 50.2934 34.7128 50.2934 34.7128V35.301C50.2934 35.5791 50.5562 35.8892 50.8816 35.8892H52.3348V26.7548H50.2934V27.9139C50.2934 27.9139 49.3898 26.5472 47.3869 26.5472V26.5471ZM47.7506 28.415C49.5341 28.415 50.4696 29.9835 50.4696 31.3213C50.4696 32.8114 49.3588 34.2267 47.7543 34.2267C46.4131 34.2267 45.0696 33.1404 45.0696 31.3016C45.0696 29.6418 46.2258 28.415 47.7506 28.415ZM55.172 35.8893C54.8584 35.8893 54.5838 35.6643 54.5838 35.301V26.7548H56.6253V27.8852C57.0878 27.1898 57.9916 26.5444 59.3788 26.5444C61.646 26.5444 62.8533 28.3517 62.8533 30.0418V35.8893H61.4347C61.0627 35.8893 60.8119 35.5779 60.8119 35.2665V30.4916C60.8119 29.5548 60.2379 28.4171 58.9105 28.4171C57.4781 28.4171 56.6253 29.7708 56.6253 31.0452V35.8893L55.172 35.8893ZM68.8046 26.5471C66.6381 26.5471 64.4103 28.2832 64.4103 31.322C64.4103 34.1 66.369 36.0622 68.8046 36.0622C70.815 36.0622 71.711 34.7128 71.711 34.7128V35.301C71.711 35.5791 71.9739 35.8892 72.2992 35.8892H73.7524V22.1875H71.711V27.9139C71.711 27.9139 70.8075 26.5471 68.8046 26.5471V26.5471ZM69.1682 28.415C70.9517 28.415 71.8872 29.9835 71.8872 31.3213C71.8872 32.8114 70.7765 34.2267 69.172 34.2267C67.8308 34.2267 66.4872 33.1404 66.4872 31.3016C66.4872 29.6418 67.6434 28.415 69.1682 28.415ZM76.5897 35.8893C76.276 35.8893 76.0015 35.6643 76.0015 35.301V26.7548H78.0429V28.2772C78.3943 27.4243 79.1525 26.651 80.4995 26.651C80.875 26.651 81.2261 26.7202 81.2261 26.7202V28.8308C81.2261 28.8308 80.7877 28.6578 80.2573 28.6578C78.825 28.6578 78.0429 30.0115 78.0429 31.2859V35.8893L76.5897 35.8893ZM93.6131 35.8893C93.2994 35.8893 93.0248 35.6643 93.0248 35.301V26.7548H95.0663V35.8893L93.6131 35.8893ZM101.052 26.5471C98.8856 26.5471 96.6579 28.2832 96.6579 31.322C96.6579 34.1 98.6166 36.0622 101.052 36.0622C103.063 36.0622 103.959 34.7128 103.959 34.7128V35.301C103.959 35.5791 104.221 35.8892 104.547 35.8892H106V22.1875H103.959V27.9139C103.959 27.9139 103.055 26.5471 101.052 26.5471V26.5471ZM101.416 28.415C103.199 28.415 104.135 29.9835 104.135 31.3213C104.135 32.8114 103.024 34.2267 101.42 34.2267C100.078 34.2267 98.7348 33.1404 98.7348 31.3016C98.7348 29.6418 99.891 28.415 101.416 28.415V28.415Z" fill="white"></path><path d="M94.0297 24.7844C94.7754 24.7844 95.3799 24.1799 95.3799 23.4342C95.3799 22.6885 94.7754 22.084 94.0297 22.084C93.284 22.084 92.6794 22.6885 92.6794 23.4342C92.6794 24.1799 93.284 24.7844 94.0297 24.7844Z" fill="white"></path><path d="M86.6098 26.5439C84.3409 26.5439 81.8481 28.2376 81.8481 31.3056C81.8481 34.1014 83.9714 36.0624 86.6049 36.0624C89.8504 36.0624 91.4351 33.4534 91.4351 31.3233C91.4351 28.7096 89.3945 26.5439 86.6098 26.5439V26.5439ZM86.6172 28.4503C88.1863 28.4503 89.3566 29.7149 89.3566 31.3114C89.3566 32.9355 88.1142 34.1888 86.6219 34.1888C85.2366 34.1888 83.89 33.0614 83.89 31.3387C83.89 29.5872 85.1707 28.4503 86.6172 28.4503Z" fill="white"></path></svg>