<svg width="120" height="40" viewBox="0 0 122 43" fill="none" xmlns="http://www.w3.org/2000/svg"><rect width="122" height="43" rx="6" fill="black"></rect><path fill-rule="evenodd" clip-rule="evenodd" d="M38.0677 27.4957C38.0677 24.566 40.5301 22.1807 43.4599 22.1807C45.0795 22.1807 46.232 22.8167 47.1016 23.645L46.0777 24.6689C45.4562 24.0854 44.6134 23.6327 43.4587 23.6327C41.3193 23.6327 39.6471 25.3552 39.6471 27.4946C39.6471 29.6341 41.3193 31.3588 43.4576 31.3588C44.8448 31.3588 45.634 30.8021 46.1403 30.2947C46.555 29.88 46.8266 29.2842 46.9317 28.4671H43.4599V27.0184H48.3468C48.3982 27.2778 48.4251 27.5885 48.4251 27.925C48.4251 29.0126 48.1266 30.3617 47.1664 31.3219C46.232 32.2944 45.0404 32.813 43.4587 32.813C40.5279 32.813 38.0654 30.4299 38.0654 27.498L38.0677 27.4957ZM52.3753 25.9666C50.4829 25.9666 48.9381 27.4063 48.9381 29.3881C48.9381 31.3599 50.4818 32.8097 52.3753 32.8097C54.2689 32.8097 55.8103 31.3577 55.8103 29.387C55.8103 27.4052 54.2677 25.9655 52.3753 25.9666ZM52.3753 31.4639C51.3391 31.4639 50.4438 30.6088 50.4438 29.3893C50.4438 28.1575 51.338 27.3147 52.3753 27.3147C53.4115 27.3147 54.3057 28.1563 54.3057 29.3893C54.3057 30.6077 53.4126 31.4639 52.3753 31.4639ZM59.8701 25.9666C57.9777 25.9666 56.4351 27.4063 56.4351 29.3881C56.4351 31.3599 57.9777 32.8097 59.8701 32.8097C61.7625 32.8097 63.305 31.3577 63.305 29.387C63.305 27.4052 61.7636 25.9655 59.8701 25.9666ZM59.8701 31.4639C58.8339 31.4639 57.9385 30.6088 57.9385 29.3893C57.9385 28.1575 58.8328 27.3147 59.8701 27.3147C60.9063 27.3147 61.8016 28.1563 61.8016 29.3893C61.8016 30.6077 60.9063 31.4639 59.8701 31.4639ZM69.0683 26.1745V26.7312H69.0169C68.6805 26.3276 68.0321 25.9655 67.2162 25.9655C65.5048 25.9655 63.9343 27.47 63.9343 29.4027C63.9343 31.3197 65.5037 32.8119 67.2162 32.8119C68.0321 32.8119 68.6805 32.4498 69.0169 32.0351H69.0683V32.5269C69.0683 33.8358 68.3686 34.5367 67.2408 34.5367C66.3197 34.5367 65.7496 33.8749 65.516 33.3194L64.206 33.8638C64.5815 34.7703 65.5808 35.8858 67.2396 35.8858C69.0013 35.8858 70.4924 34.8474 70.4924 32.3201V26.1734L69.0683 26.1745ZM67.3447 31.4639C66.3085 31.4639 65.4378 30.5942 65.4378 29.4027C65.4378 28.1977 66.3074 27.3158 67.3447 27.3158C68.3686 27.3158 69.1723 28.1966 69.1723 29.4027C69.1734 30.5942 68.3697 31.4639 67.3447 31.4639ZM71.5308 22.5439H73.0354V32.604H71.5308V22.5439ZM77.1589 31.4639C76.3943 31.4639 75.8488 31.1129 75.5012 30.4277L80.0774 28.533L79.9198 28.1441C79.6359 27.3806 78.7662 25.9666 76.9901 25.9666C75.2273 25.9666 73.7619 27.3538 73.7619 29.3893C73.7619 31.3063 75.2139 32.8108 77.1589 32.8108C78.7282 32.8108 79.6359 31.8529 80.0115 31.294L78.8445 30.5171C78.4544 31.0883 77.9223 31.465 77.1589 31.4639ZM77.0415 27.2889C77.6373 27.2889 78.1425 27.5874 78.3113 28.0144L75.2508 29.2853C75.2128 27.963 76.2758 27.2889 77.0415 27.2889Z" fill="white"></path><path fill-rule="evenodd" clip-rule="evenodd" d="M86.6791 22.5449H83.082V32.605H84.5832V28.7945H86.6802C88.3446 28.7945 89.981 27.5895 89.981 25.6691C89.981 23.7521 88.3457 22.546 86.6824 22.546L86.6791 22.5449ZM86.7182 27.3939H84.5832V23.9444H86.7182C87.8404 23.9444 88.4798 24.8755 88.4798 25.6691C88.4798 26.4493 87.8404 27.3939 86.7182 27.3939ZM92.3094 32.605V22.5449H90.8082V32.605H92.3094ZM99.053 32.5871V28.7307C99.053 26.9445 97.7183 25.9486 95.9958 25.9486C94.9104 25.9486 93.7848 26.4281 93.3187 27.4889L94.6511 28.0444C94.9361 27.4889 95.466 27.3067 96.0238 27.3067C96.7995 27.3067 97.5887 27.7728 97.6009 28.6022V28.7062C97.3293 28.5508 96.7481 28.3172 96.0349 28.3172C94.5986 28.3172 93.1365 29.1063 93.1365 30.5818C93.1365 31.9287 94.3147 32.795 95.6348 32.795C96.6452 32.795 97.2008 32.3423 97.5495 31.8125H97.6009V32.5893H99.0518L99.053 32.5871ZM95.817 31.4626C95.3251 31.4626 94.6388 31.2167 94.6388 30.6097C94.6388 29.8329 95.4939 29.5333 96.2317 29.5333C96.8923 29.5333 97.2019 29.6753 97.6043 29.8698C97.4892 30.7729 96.7257 31.4514 95.817 31.4626ZM104.332 26.1688L102.611 30.5293H102.559L100.773 26.1688H99.1558L101.834 32.2652L100.306 35.6554H101.872L106 26.1688H104.332Z" fill="white"></path><g clip-path="url(#clip0_3335_20591)"><path d="M23.9856 27.7168L16.9934 35.0268C17.2204 35.7987 17.9469 36.3889 18.8096 36.3889C19.1728 36.3889 19.4906 36.2981 19.763 36.1165L27.6633 31.6215L23.9856 27.7168Z" fill="#EA4335"></path><path d="M31.0686 26.4455L27.6633 24.4932L23.8494 27.853L27.7087 31.6216L31.114 29.7146C31.7042 29.3968 32.1129 28.7611 32.1129 28.0801C32.0675 27.399 31.6588 26.7634 31.0686 26.4455Z" fill="#FBBC04"></path><path d="M16.9934 21.1338C16.948 21.27 16.948 21.4516 16.948 21.6332V34.5733C16.948 34.7549 16.948 34.8912 16.9934 35.0728L24.258 27.9444L16.9934 21.1338Z" fill="#4285F4"></path><path d="M24.031 28.0804L27.6633 24.4935L19.8084 20.0439C19.536 19.8623 19.1728 19.7715 18.8096 19.7715C17.9469 19.7715 17.175 20.3617 16.9934 21.1336L24.031 28.0804Z" fill="#34A853"></path></g><path d="M79.1321 10.5649C79.1833 10.726 79.2357 10.8947 79.2894 11.0711C79.3456 11.2449 79.3955 11.4213 79.4389 11.6003C79.4849 11.7793 79.522 11.9582 79.5501 12.1372C79.5783 12.3136 79.5923 12.4861 79.5923 12.6549C79.5923 12.885 79.5565 13.1087 79.4849 13.326C79.4159 13.5458 79.3188 13.7567 79.1935 13.9587C79.0708 14.1632 78.9238 14.3575 78.7525 14.5416C78.5838 14.7257 78.3997 14.8995 78.2003 15.0631C78.0009 15.2267 77.79 15.3788 77.5675 15.5195C77.3451 15.6601 77.1202 15.7866 76.8926 15.8991L76.4555 15.0209C76.637 14.9315 76.8159 14.8317 76.9923 14.7218C77.1687 14.6144 77.3362 14.4994 77.4947 14.3767C77.6557 14.254 77.804 14.1249 77.9395 13.9894C78.0776 13.8539 78.1952 13.7133 78.2923 13.5675C78.392 13.4218 78.47 13.2723 78.5262 13.1189C78.5825 12.9655 78.6106 12.8108 78.6106 12.6549C78.6106 12.5091 78.594 12.3558 78.5608 12.1947C78.5275 12.0336 78.4866 11.8751 78.438 11.7192C78.392 11.5607 78.3435 11.4086 78.2923 11.2628C78.2437 11.1171 78.2028 10.988 78.1696 10.8755L79.1321 10.5649ZM79.251 8.9313L78.5147 9.66757L77.7823 8.9313L78.5147 8.19885L79.251 8.9313ZM81.5619 7.0139C81.6258 7.5022 81.6706 7.96877 81.6962 8.4136C81.7217 8.85588 81.7371 9.28921 81.7422 9.71359C81.7473 10.0741 81.7486 10.4077 81.746 10.7145C81.746 11.0213 81.7434 11.3076 81.7383 11.5735C81.7332 11.8368 81.7256 12.0835 81.7153 12.3136C81.7051 12.5411 81.6949 12.7546 81.6846 12.954L80.6799 13.1074C80.7336 12.2637 80.7605 11.5185 80.7605 10.8717C80.7605 10.6109 80.7566 10.3668 80.749 10.1393C80.7285 9.61517 80.7055 9.12303 80.6799 8.66286C80.6544 8.20013 80.6199 7.75785 80.5764 7.33603L81.5619 7.0139ZM85.893 11.608C85.9901 11.6693 86.1065 11.732 86.242 11.7959C86.38 11.8598 86.5219 11.9173 86.6676 11.9684C86.8159 12.0196 86.9603 12.0618 87.101 12.095C87.2441 12.1282 87.3694 12.1448 87.4768 12.1448C87.5202 12.1448 87.5739 12.1436 87.6378 12.141C87.7017 12.1385 87.7695 12.1333 87.8411 12.1257C87.9127 12.1154 87.9842 12.1014 88.0558 12.0835C88.1274 12.063 88.1913 12.0362 88.2476 12.003C88.3064 11.9672 88.3537 11.9237 88.3894 11.8726C88.4252 11.8189 88.4444 11.7537 88.447 11.677C88.447 11.6719 88.447 11.6681 88.447 11.6655C88.447 11.5632 88.4176 11.4482 88.3588 11.3204C88.3025 11.19 88.2245 11.0545 88.1248 10.9139C88.0251 10.7707 87.9101 10.6275 87.7797 10.4844C87.6493 10.3412 87.5138 10.2044 87.3732 10.0741C87.2326 9.94112 87.0907 9.81969 86.9476 9.70976C86.807 9.59727 86.6753 9.50268 86.5526 9.42598L87.124 8.5785C87.3592 8.73956 87.5905 8.92107 87.8181 9.12303C88.0481 9.325 88.2591 9.54103 88.4508 9.77111C88.6451 9.99864 88.8125 10.2364 88.9532 10.4844C89.0963 10.7324 89.1986 10.9829 89.2599 11.236C89.2932 11.3817 89.3098 11.5211 89.3098 11.654C89.3098 11.7818 89.2855 11.9352 89.2369 12.1142C89.1909 12.2931 89.0848 12.4695 88.9186 12.6434C88.7525 12.8147 88.5416 12.9463 88.2859 13.0383C88.066 13.1176 87.8245 13.1572 87.5611 13.1572C87.5177 13.1572 87.4729 13.1559 87.4269 13.1534C87.2582 13.1534 87.0869 13.1368 86.9131 13.1035C86.7392 13.0729 86.5679 13.0294 86.3992 12.9732C86.233 12.9169 86.072 12.853 85.916 12.7814C85.7626 12.7073 85.6195 12.6293 85.4865 12.5475L85.893 11.608ZM90.0315 14.8407C90.4073 14.7666 90.746 14.6669 91.0477 14.5416C91.3519 14.4189 91.6152 14.2808 91.8377 14.1274C92.0601 13.974 92.2403 13.8104 92.3784 13.6366C92.519 13.4627 92.6123 13.2889 92.6583 13.115C92.4512 13.115 92.2493 13.1087 92.0524 13.0959C91.8556 13.0831 91.6689 13.0575 91.4925 13.0192C91.3187 12.9834 91.1576 12.9323 91.0093 12.8658C90.8636 12.7968 90.7371 12.7073 90.6297 12.5973C90.5249 12.4849 90.4431 12.3494 90.3843 12.1909C90.3255 12.0324 90.2961 11.8432 90.2961 11.6233C90.2961 11.4827 90.3114 11.3357 90.3421 11.1823C90.3728 11.0289 90.4162 10.8794 90.4725 10.7336C90.5313 10.5854 90.6029 10.446 90.6872 10.3157C90.7716 10.1827 90.8687 10.0664 90.9787 9.96669C91.0886 9.86443 91.21 9.7839 91.343 9.7251C91.4759 9.6663 91.6191 9.6369 91.7725 9.6369C92.1687 9.6369 92.5305 9.8133 92.8577 10.1661C92.9651 10.2863 93.0622 10.4205 93.1492 10.5687C93.2361 10.717 93.3115 10.8755 93.3754 11.0443C93.4393 11.213 93.4904 11.3894 93.5288 11.5735C93.5697 11.755 93.5953 11.9416 93.6055 12.1333H93.8624V13.115H93.525C93.438 13.4934 93.291 13.8334 93.084 14.1351C92.8769 14.4393 92.6276 14.7039 92.3362 14.9289C92.0473 15.1539 91.7252 15.3392 91.3698 15.4849C91.0145 15.6307 90.645 15.7355 90.2616 15.7994L90.0315 14.8407ZM91.7725 10.6224C91.706 10.6224 91.6344 10.6506 91.5577 10.7068C91.481 10.763 91.4107 10.8359 91.3468 10.9254C91.2829 11.0123 91.2292 11.1095 91.1857 11.2168C91.1448 11.3242 91.1244 11.429 91.1244 11.5313C91.1244 11.6387 91.1487 11.7281 91.1972 11.7997C91.2484 11.8713 91.3123 11.9288 91.389 11.9723C91.4682 12.0157 91.5564 12.049 91.6536 12.072C91.7533 12.0924 91.8517 12.1065 91.9489 12.1142C92.0026 12.1193 92.0614 12.1231 92.1253 12.1257C92.1892 12.1257 92.2544 12.1269 92.3208 12.1295C92.3899 12.1321 92.4576 12.1333 92.5241 12.1333C92.5906 12.1333 92.6532 12.1333 92.712 12.1333C92.7043 12.0387 92.6851 11.9365 92.6545 11.8266C92.6263 11.7141 92.5893 11.6016 92.5433 11.4891C92.4972 11.3766 92.4448 11.2692 92.386 11.167C92.3272 11.0622 92.2633 10.9701 92.1943 10.8909C92.1278 10.8091 92.0588 10.7439 91.9872 10.6953C91.9156 10.6467 91.844 10.6224 91.7725 10.6224ZM93.9308 12.1333H94.2108C94.3028 12.1333 94.3885 12.1257 94.4677 12.1103C94.547 12.095 94.6173 12.063 94.6786 12.0145C94.74 11.9633 94.7898 11.893 94.8282 11.8035C94.8665 11.7141 94.8908 11.5939 94.901 11.4431C94.901 11.3843 94.9023 11.282 94.9049 11.1363C94.91 10.988 94.9138 10.8129 94.9164 10.6109C94.9189 10.4064 94.9215 10.1827 94.9241 9.93984C94.9266 9.69697 94.9279 9.44899 94.9279 9.1959C94.9279 8.99904 94.9266 8.80603 94.9241 8.61684C94.9241 8.4251 94.9215 8.24103 94.9164 8.06463C94.9138 7.88823 94.9074 7.72206 94.8972 7.56611C94.8895 7.41017 94.878 7.26828 94.8627 7.14045L95.8406 7.0139C95.8585 7.15196 95.8725 7.3079 95.8827 7.48175C95.893 7.65559 95.9006 7.84094 95.9058 8.03779C95.9134 8.23209 95.9173 8.43661 95.9173 8.65136C95.9198 8.86355 95.9211 9.0783 95.9211 9.2956C95.9211 9.77878 95.916 10.1993 95.9058 10.5572C95.8981 10.9152 95.8943 11.2322 95.8943 11.5083C95.8943 11.7026 95.9441 11.856 96.0438 11.9684C96.1435 12.0784 96.2918 12.1333 96.4886 12.1333H96.573V13.115H96.4886C96.4733 13.115 96.4592 13.115 96.4465 13.115C96.3468 13.115 96.2483 13.1061 96.1512 13.0882C96.0566 13.0729 95.9646 13.0486 95.8751 13.0153C95.7882 12.9847 95.7076 12.9476 95.6335 12.9041C95.5593 12.8607 95.4942 12.8159 95.4379 12.7699C95.3638 12.8415 95.282 12.9003 95.1925 12.9463C95.1056 12.9898 95.0161 13.0243 94.9241 13.0499C94.832 13.0754 94.7413 13.092 94.6518 13.0997C94.5623 13.1099 94.4818 13.115 94.4102 13.115H93.9308V12.1333ZM96.645 12.1333H97.2624C97.3826 12.1333 97.5053 12.1269 97.6306 12.1142C97.7584 12.0988 97.8734 12.0694 97.9757 12.026C98.0779 11.9799 98.161 11.9148 98.2249 11.8304C98.2914 11.746 98.3246 11.6335 98.3246 11.4929C98.3246 11.4265 98.3106 11.3331 98.2825 11.213C98.2543 11.0928 98.2173 10.9599 98.1713 10.8142C98.1252 10.6685 98.0703 10.5176 98.0064 10.3617C97.945 10.2057 97.8798 10.06 97.8108 9.9245L98.6966 9.48734C98.7605 9.63306 98.8244 9.78773 98.8884 9.95135C98.9523 10.115 99.0085 10.2837 99.0571 10.4575C99.1082 10.6288 99.1491 10.8014 99.1798 10.9752C99.2105 11.1491 99.2258 11.3191 99.2258 11.4853C99.2258 11.7716 99.1772 12.0183 99.0801 12.2254C98.983 12.4299 98.8475 12.5986 98.6736 12.7316C98.4998 12.8619 98.2914 12.9578 98.0485 13.0192C97.8082 13.0831 97.5436 13.115 97.2547 13.115H96.645V12.1333ZM98.6046 8.18735L97.8683 8.92363L97.1359 8.18735L97.8683 7.4549L98.6046 8.18735ZM101.223 7.0139C101.287 7.5022 101.332 7.96877 101.358 8.4136C101.383 8.85588 101.398 9.28921 101.404 9.71359C101.409 10.0741 101.41 10.4077 101.407 10.7145C101.407 11.0213 101.405 11.3076 101.4 11.5735C101.395 11.8368 101.387 12.0835 101.377 12.3136C101.367 12.5411 101.356 12.7546 101.346 12.954L100.341 13.1074C100.395 12.2637 100.422 11.5185 100.422 10.8717C100.422 10.6109 100.418 10.3668 100.41 10.1393C100.39 9.61517 100.367 9.12303 100.341 8.66286C100.316 8.20013 100.281 7.75785 100.238 7.33603L101.223 7.0139ZM102.659 11.608C102.757 11.6693 102.873 11.732 103.008 11.7959C103.146 11.8598 103.288 11.9173 103.434 11.9684C103.582 12.0196 103.727 12.0618 103.867 12.095C104.01 12.1282 104.136 12.1448 104.243 12.1448C104.287 12.1448 104.34 12.1436 104.404 12.141C104.468 12.1385 104.536 12.1333 104.607 12.1257C104.679 12.1154 104.751 12.1014 104.822 12.0835C104.894 12.063 104.958 12.0362 105.014 12.003C105.073 11.9672 105.12 11.9237 105.156 11.8726C105.192 11.8189 105.211 11.7537 105.213 11.677C105.213 11.6719 105.213 11.6681 105.213 11.6655C105.213 11.5632 105.184 11.4482 105.125 11.3204C105.069 11.19 104.991 11.0545 104.891 10.9139C104.792 10.7707 104.676 10.6275 104.546 10.4844C104.416 10.3412 104.28 10.2044 104.14 10.0741C103.999 9.94112 103.857 9.81969 103.714 9.70976C103.573 9.59727 103.442 9.50268 103.319 9.42598L103.89 8.5785C104.126 8.73956 104.357 8.92107 104.584 9.12303C104.815 9.325 105.025 9.54103 105.217 9.77111C105.411 9.99864 105.579 10.2364 105.72 10.4844C105.863 10.7324 105.965 10.9829 106.026 11.236C106.06 11.3817 106.076 11.5211 106.076 11.654C106.076 11.7818 106.052 11.9352 106.003 12.1142C105.957 12.2931 105.851 12.4695 105.685 12.6434C105.519 12.8147 105.308 12.9463 105.052 13.0383C104.832 13.1176 104.591 13.1572 104.327 13.1572C104.284 13.1572 104.239 13.1559 104.193 13.1534C104.025 13.1534 103.853 13.1368 103.679 13.1035C103.506 13.0729 103.334 13.0294 103.166 12.9732C102.999 12.9169 102.838 12.853 102.682 12.7814C102.529 12.7073 102.386 12.6293 102.253 12.5475L102.659 11.608Z" fill="white"></path><defs><clipPath id="clip0_3335_20591"><rect width="18.1615" height="18.1615" fill="white" transform="translate(15.041 19)"></rect></clipPath></defs></svg>